<?xml version="1.0" encoding="UTF-8" standalone="no"?>
<!DOCTYPE svg PUBLIC "-//W3C//DTD SVG 1.1//EN" "http://www.w3.org/Graphics/SVG/1.1/DTD/svg11.dtd">
<svg width="100%" height="100%" viewBox="0 0 190 219" version="1.1" xmlns="http://www.w3.org/2000/svg" xmlns:xlink="http://www.w3.org/1999/xlink" xml:space="preserve" xmlns:serif="http://www.serif.com/" style="fill-rule:evenodd;clip-rule:evenodd;stroke-linejoin:round;stroke-miterlimit:2;">
    <g transform="matrix(1,0,0,1,-5,-5.81909)">
        <g transform="matrix(1.91014,0,0,1.91014,-440.667,-88.4637)">
            <path d="M307.207,65.613C305.91,65.129 305.242,65.02 305.242,65.309C305.242,65.488 305.477,65.793 305.93,66.242C313.344,73.66 319.52,82.461 324.434,92.613C329.992,104.098 332.785,115.277 332.785,126.113C332.785,139.035 329.398,149.492 322.668,157.469C320.852,159.645 319.715,160.742 319.266,160.742C319.121,160.707 319.066,160.617 319.066,160.492C319.066,159.898 319.77,158.477 321.156,156.191C326.555,147.281 329.273,139.523 329.273,132.953C329.273,124.816 326.879,115.473 322.094,104.926C317.789,95.477 312.461,86.816 306.07,78.953C305.91,78.754 302.398,74 295.543,64.676C295.055,63.992 294.211,63.059 293.004,61.852C292.121,60.969 291.691,60.395 291.691,60.086L291.691,50.766C291.691,49.828 291.906,49.359 292.355,49.359C292.59,49.359 292.879,49.504 293.238,49.793L310.176,64.191C311.219,65.074 311.742,65.738 311.742,66.191C311.742,66.496 311.488,66.641 310.969,66.641C310.211,66.641 308.953,66.297 307.207,65.613Z" style="fill:rgb(0,162,181);fill-rule:nonzero;"/>
            <path d="M306.953,132.176C305.297,127.156 304.184,122.477 303.59,118.102C303.371,116.41 303.211,115.383 303.102,114.988C302.867,114.07 302.438,113.168 301.789,112.305C302.238,110.793 302.957,108.707 303.93,106.004C304.254,105.215 304.559,104.836 304.813,104.836C305.047,104.836 305.441,105.215 306.035,106.004C308.609,109.586 310.77,112.793 312.516,115.617C313.234,116.789 313.598,117.617 313.598,118.102C313.598,118.461 313.434,118.641 313.109,118.641C312.461,118.641 311.293,118.102 309.602,117.039C309.438,117.039 309.313,117.148 309.203,117.383C309.797,119.488 310.734,122.402 312.031,126.113C314.965,134.445 316.441,140.512 316.441,144.328C316.441,148.125 315.863,151.457 314.73,154.281C312.84,159.105 309.563,161.52 304.922,161.52C299.969,161.52 296.063,159.359 293.203,155.074C291.473,152.5 289.945,148.648 288.613,143.5C288.035,148.684 286.379,153.129 283.68,156.875C280.367,161.41 276.121,163.676 270.953,163.676C265.246,163.676 261.269,160.961 258.984,155.504C257.722,152.445 257.094,148.863 257.094,144.723C257.094,139.25 257.742,134.156 259.039,129.441C259.379,128.164 259.558,127.316 259.558,126.902C259.558,126.668 259.508,126.562 259.379,126.562C259.144,126.562 258.625,127.191 257.812,128.453C256.535,130.449 255.203,134.48 253.801,140.566C251.98,148.414 250.793,153.148 250.234,154.77C249.496,157.02 248.438,158.836 247.066,160.203C245.969,161.336 244.996,161.914 244.188,161.914C240.551,161.914 237.727,159.59 235.746,154.965C234.125,151.133 233.316,146.488 233.316,141.051C233.316,137.254 233.891,133.113 235.063,128.648C235.332,127.641 235.586,126.902 235.855,126.398C236.195,125.789 236.449,125.715 236.574,126.164C236.699,126.687 236.645,127.605 236.375,128.937C235.727,132.34 235.402,135.437 235.402,138.281C235.402,149.277 237.707,154.785 242.336,154.785C244.313,154.785 245.969,153.293 247.266,150.34C248.074,148.484 249.066,144.941 250.234,139.738C251.586,133.977 252.719,129.766 253.656,127.082C254.734,124.023 256.066,121.305 257.672,118.93C259.379,116.266 260.89,114.934 262.152,114.934C263.195,114.934 263.719,116.031 263.719,118.246C263.719,120.082 263.195,123.773 262.152,129.352C261.109,134.949 260.605,138.695 260.605,140.621C260.605,144.777 261.469,148.035 263.215,150.375C264.941,152.734 267.371,153.902 270.449,153.902C276.047,153.902 280.262,152.141 283.051,148.629C285.266,145.859 286.379,142.437 286.379,138.371C286.379,134.465 286.039,130.684 285.391,127.047C284.941,124.473 284.309,122.027 283.535,119.723C282.887,117.707 282.563,116.75 282.563,116.879C282.563,114.645 283.285,111.586 284.762,107.699C285.086,106.852 285.336,106.437 285.535,106.437C285.77,106.437 286.129,106.996 286.648,108.094C288.738,112.434 290.375,119.074 291.582,128.02C292.715,136.391 294.355,142.367 296.496,145.965C298.621,149.566 301.859,151.367 306.234,151.367C309.871,151.367 312.266,150.035 313.398,147.406C313.398,146.488 312.641,144.543 311.113,141.539C309.148,137.738 307.781,134.609 306.953,132.176Z" style="fill:rgb(0,162,181);fill-rule:nonzero;"/>
            <path d="M288.449,95.891C288.449,97.168 288.16,98.48 287.605,99.852C286.867,101.613 285.91,102.496 284.723,102.496C282.871,102.496 281.555,101.219 280.781,98.68C279.898,101.937 278.297,103.574 275.941,103.574C275.074,103.574 274.301,103.125 273.652,102.242C272.898,101.199 272.539,99.832 272.539,98.141L272.539,94.145C272.539,93.82 272.305,93.586 271.871,93.461C271.422,93.332 271.207,92.992 271.207,92.434C271.207,91.551 271.566,90.687 272.32,89.84C273.008,89.105 273.527,88.727 273.887,88.727C274.355,88.727 274.59,89.609 274.59,91.355C274.59,92.273 274.5,93.027 274.355,93.656C274.211,94.27 274.141,94.809 274.141,95.258C274.141,96.215 274.32,97.133 274.715,97.996C275.184,99.023 275.742,99.527 276.426,99.527C277.309,99.527 278.137,99.113 278.91,98.32C279.664,97.527 280.063,96.59 280.063,95.512C280.063,94.898 279.883,93.836 279.523,92.344C279.16,90.832 278.98,89.914 278.98,89.555C278.98,89.23 279.145,88.707 279.469,88.004C279.793,87.32 280.027,86.961 280.188,86.961C280.492,86.961 280.871,87.953 281.34,89.949C281.809,91.93 282.059,93.387 282.059,94.34C282.059,97.078 283.105,98.445 285.227,98.445C286.129,98.445 286.703,97.977 286.938,97.078C285.102,93.875 284.203,91.445 284.203,89.75C284.203,88.762 284.438,87.898 284.922,87.16C285.266,86.637 285.48,86.352 285.605,86.332C285.75,86.332 285.84,86.656 285.91,87.305C286.004,88.223 286.145,88.961 286.344,89.555C286.379,89.609 286.813,90.742 287.656,92.918C288.18,94.215 288.449,95.207 288.449,95.891Z" style="fill:rgb(255,176,0);fill-rule:nonzero;"/>
            <path d="M294.012,75.91C293.363,77.547 292.879,78.465 292.59,78.699C284.164,81.668 273.168,85.937 259.597,91.535C257.219,92.777 256.031,93.621 256.031,94.07C256.031,94.379 256.43,94.719 257.203,95.098C257.992,95.492 259.234,95.98 260.965,96.574C261.254,96.664 261.394,97.293 261.394,98.465C261.394,99.488 261.359,100.082 261.254,100.266C261.16,100.426 260.801,100.461 260.191,100.336C256.246,99.578 254.285,98.195 254.285,96.176C254.285,95.043 254.824,93.566 255.906,91.785C257.004,89.984 258.156,88.727 259.363,87.969C260.426,87.285 266.238,85.035 276.785,81.184C282.238,79.203 287.711,77.242 293.184,75.281C293.762,75.062 294.102,74.973 294.211,75.047C294.266,75.137 294.211,75.422 294.012,75.91Z" style="fill:rgb(255,176,0);fill-rule:nonzero;"/>
            <path d="M275.328,80.066C274.969,80.84 274.68,81.328 274.445,81.488C274.246,81.652 274.141,81.543 274.105,81.184C274.105,80.824 274.195,80.336 274.375,79.727C274.555,79.094 274.789,77.961 275.074,76.305C275.473,70.437 272.898,65.09 267.371,60.23C267.047,59.945 266.992,59.582 267.227,59.152L268.688,56.578C268.813,56.344 269.027,56.344 269.316,56.578C274.43,60.375 276.984,65.594 276.984,72.203C276.984,75.102 276.426,77.727 275.328,80.066Z" style="fill:rgb(255,176,0);fill-rule:nonzero;"/>
            <path d="M276.102,110.918C276.102,112.125 275.598,113.477 274.625,115.004C273.617,116.59 272.305,117.957 270.719,119.074C270.09,119.523 269.711,119.758 269.586,119.758C269.566,119.758 269.566,119.738 269.566,119.723C269.566,119.613 269.84,119.289 270.359,118.695C272.988,115.832 274.301,113.926 274.301,112.973C274.301,112.055 273.871,111.605 273.023,111.605C272.574,111.605 272.141,111.73 271.766,111.98C271.492,112.16 271.313,112.27 271.242,112.289C271.207,112.25 271.133,112.215 271.063,112.199C271.098,112.09 271.133,111.855 271.207,111.461C271.637,109.48 272.609,108.508 274.156,108.508C275.453,108.508 276.102,109.316 276.102,110.918Z" style="fill:rgb(255,176,0);fill-rule:nonzero;"/>
            <path d="M275.762,138.82C275.832,138.676 275.922,138.551 275.992,138.477C276.066,138.422 276.102,138.441 276.102,138.516C276.137,138.586 276.137,138.73 276.102,138.91C275.398,142.727 274.266,144.652 272.664,144.652C270.988,144.652 270.145,143.23 270.145,140.422C270.145,136.965 271.133,133.328 273.148,129.531C273.637,128.594 273.941,128.109 274.031,128.09C274.066,128.09 274.086,128.09 274.086,128.129C274.086,128.309 273.941,128.848 273.652,129.73C272.359,133.672 271.711,136.445 271.711,138.047C271.711,140.207 272.285,141.285 273.457,141.285C274.141,141.285 274.895,140.457 275.762,138.82Z" style="fill:rgb(255,176,0);fill-rule:nonzero;"/>
            <path d="M302.941,93.461C303.012,93.316 303.102,93.191 303.176,93.117C303.246,93.062 303.281,93.082 303.281,93.152C303.316,93.227 303.316,93.371 303.281,93.551C302.578,97.367 301.445,99.293 299.844,99.293C298.172,99.293 297.324,97.871 297.324,95.062C297.324,91.605 298.313,87.969 300.328,84.172C300.816,83.234 301.121,82.75 301.211,82.73C301.246,82.73 301.266,82.73 301.266,82.77C301.266,82.949 301.121,83.488 300.836,84.371C299.539,88.312 298.891,91.082 298.891,92.687C298.891,94.844 299.465,95.926 300.637,95.926C301.32,95.926 302.074,95.098 302.941,93.461Z" style="fill:rgb(255,176,0);fill-rule:nonzero;"/>
            <path d="M264.043,68.926C264.043,70.258 263.484,71.77 262.402,73.461C261.269,75.227 259.828,76.738 258.066,77.98C257.363,78.484 256.949,78.734 256.824,78.734C256.789,78.734 256.789,78.719 256.789,78.684C256.789,78.59 257.074,78.215 257.672,77.566C260.586,74.379 262.043,72.254 262.043,71.195C262.043,70.187 261.574,69.684 260.64,69.684C260.117,69.684 259.648,69.824 259.234,70.094C258.93,70.312 258.73,70.418 258.66,70.457C258.605,70.402 258.535,70.367 258.461,70.328C258.48,70.238 258.535,69.953 258.605,69.52C259.074,67.324 260.172,66.242 261.883,66.242C263.32,66.242 264.043,67.125 264.043,68.926Z" style="fill:rgb(255,176,0);fill-rule:nonzero;"/>
            <path d="M280.711,62.805C281.43,62.805 282.133,62.48 282.781,61.852C283.535,61.133 283.914,60.215 283.914,59.117C283.914,57.926 283.23,57.316 281.879,57.316C281.285,57.316 280.766,57.496 280.313,57.875C280.313,57.172 280.816,56.074 281.809,54.578C282.691,53.211 283.57,52.113 284.453,51.305C284.672,51.07 284.723,50.871 284.652,50.691C284.598,50.531 284.453,50.512 284.219,50.656C283.066,51.359 281.844,52.672 280.547,54.598C279.07,56.758 278.336,58.613 278.336,60.176C278.336,61.922 279.125,62.805 280.711,62.805Z" style="fill:rgb(255,176,0);fill-rule:nonzero;"/>
            <path d="M246.926,92.344C247.645,92.344 248.348,92.02 248.992,91.391C249.75,90.668 250.129,89.75 250.129,88.652C250.129,87.465 249.445,86.855 248.094,86.855C247.5,86.855 246.977,87.035 246.527,87.41C246.527,86.711 247.031,85.613 248.023,84.117C248.902,82.75 249.785,81.652 250.668,80.84C250.883,80.609 250.938,80.41 250.867,80.23C250.813,80.066 250.668,80.051 250.434,80.195C249.281,80.895 248.059,82.211 246.762,84.137C245.285,86.297 244.547,88.148 244.547,89.715C244.547,91.461 245.34,92.344 246.926,92.344Z" style="fill:rgb(255,176,0);fill-rule:nonzero;"/>
            <path d="M250.738,105.574C250.813,105.719 250.867,105.934 250.867,106.187C250.867,107.031 250.598,107.984 250.074,109.082C249.551,110.184 249.047,110.723 248.563,110.723C248.941,110.723 247.52,110.488 244.262,109.984C243.09,112.035 241.867,113.621 240.59,114.719C239.488,115.652 237.852,116.645 235.676,117.687C235.098,117.957 234.809,118.246 234.809,118.535C234.809,118.805 235.008,118.984 235.387,119.09C236.754,119.469 238.754,119.523 241.398,119.234C242.551,119.109 245.27,118.535 249.57,117.527C250.109,117.398 250.379,117.344 250.379,117.398C250.379,117.488 249.57,118.102 247.934,119.234C247.195,119.758 245.914,120.352 244.063,121C241.543,121.898 239.258,122.367 237.223,122.367C234.793,122.367 233.566,121.559 233.566,119.973C233.566,118.371 234.27,116.949 235.676,115.762C236.844,114.953 238.016,114.125 239.184,113.297C240.84,112.16 242.117,110.957 242.965,109.695C240.371,109.266 239.074,108.273 239.074,106.742C239.074,105.59 239.418,104.312 240.121,102.91C239.652,101.289 239.762,100.156 240.426,99.473C240.949,98.949 241.559,98.699 242.262,98.699C242.945,98.699 243.719,98.934 244.602,99.398C247.68,101.09 249.73,103.145 250.738,105.574ZM249.066,107.086C248.398,105.684 247.266,104.637 245.629,103.937C245.629,105.41 245.504,106.547 245.23,107.336C245.504,107.41 246.707,107.59 248.902,107.879C249.031,107.895 249.121,107.895 249.176,107.84C249.281,107.734 249.246,107.48 249.066,107.086ZM243.938,107.086C244.098,106.312 244.078,105.5 243.863,104.672C243.629,103.738 243.254,103.27 242.695,103.27C242.352,103.27 241.902,103.559 241.289,104.168C240.695,104.766 240.406,105.215 240.406,105.539C240.406,106.258 241.578,106.781 243.938,107.086Z" style="fill:rgb(255,176,0);fill-rule:nonzero;"/>
            <path d="M259.847,110.594C260.172,110.594 260.496,110.453 260.785,110.164C261.125,109.84 261.289,109.426 261.289,108.941C261.289,108.398 260.98,108.129 260.371,108.129C260.101,108.129 259.867,108.219 259.668,108.383C259.668,108.059 259.902,107.57 260.336,106.887C260.746,106.277 261.144,105.773 261.539,105.41C261.629,105.305 261.664,105.215 261.629,105.141C261.594,105.07 261.539,105.051 261.433,105.125C260.91,105.43 260.371,106.023 259.777,106.887C259.109,107.859 258.785,108.707 258.785,109.406C258.785,110.199 259.129,110.594 259.847,110.594Z" style="fill:rgb(255,176,0);fill-rule:nonzero;"/>
            <path d="M288.109,67.844C288.109,68.441 287.855,69.125 287.352,69.898C286.848,70.691 286.199,71.375 285.406,71.934C285.086,72.148 284.902,72.273 284.832,72.273L284.832,72.254C284.832,72.203 284.957,72.039 285.227,71.734C286.543,70.312 287.207,69.34 287.207,68.871C287.207,68.402 286.992,68.187 286.559,68.187C286.324,68.187 286.129,68.242 285.93,68.387C285.785,68.477 285.695,68.531 285.66,68.531C285.641,68.512 285.605,68.492 285.57,68.492C285.59,68.441 285.625,68.312 285.641,68.117C285.859,67.125 286.363,66.641 287.137,66.641C287.785,66.641 288.109,67.035 288.109,67.844Z" style="fill:rgb(255,176,0);fill-rule:nonzero;"/>
            <path d="M266.258,79.707C266.578,79.707 266.902,79.562 267.191,79.277C267.535,78.953 267.695,78.539 267.695,78.051C267.695,77.512 267.391,77.242 266.777,77.242C266.508,77.242 266.273,77.332 266.074,77.492C266.074,77.168 266.309,76.684 266.742,76C267.156,75.387 267.551,74.883 267.949,74.523C268.039,74.414 268.074,74.324 268.039,74.254C268.004,74.184 267.949,74.164 267.84,74.234C267.316,74.543 266.777,75.137 266.184,76C265.52,76.973 265.195,77.816 265.195,78.52C265.195,79.312 265.535,79.707 266.258,79.707Z" style="fill:rgb(255,176,0);fill-rule:nonzero;"/>
            <path d="M245.23,130C245.23,130.594 244.98,131.277 244.477,132.051C243.973,132.844 243.324,133.527 242.531,134.086C242.207,134.301 242.027,134.426 241.957,134.426L241.957,134.41C241.957,134.355 242.082,134.195 242.352,133.887C243.664,132.465 244.332,131.492 244.332,131.027C244.332,130.559 244.117,130.34 243.684,130.34C243.449,130.34 243.254,130.395 243.055,130.539C242.91,130.629 242.82,130.684 242.785,130.684C242.766,130.664 242.73,130.648 242.695,130.648C242.711,130.594 242.746,130.469 242.766,130.27C242.98,129.281 243.484,128.793 244.262,128.793C244.906,128.793 245.23,129.191 245.23,130Z" style="fill:rgb(255,176,0);fill-rule:nonzero;"/>
        </g>
    </g>
</svg>
