<svg width="2120" height="1636" viewBox="0 0 2120 1636" fill="none" xmlns="http://www.w3.org/2000/svg">
<path d="M2000.52 1334.81C1903.05 1524.25 1655.41 1746.2 991.186 1573.42C20.2855 1320.88 2.90547 478.091 2.90547 478.091C2.90547 478.091 -76.8046 -121.469 598.785 37.8907C1274.38 197.251 1620.14 23.6408 1824.95 1.76076C1956.71 -12.3192 2067.36 59.0608 2108.05 179.431C2122.7 222.761 2136.95 353.581 2052.11 500.971C2003.11 586.051 1963.44 745.081 2026.76 943.031C2042.79 993.141 2081.34 1177.71 2000.52 1334.81Z" fill="#D0E9FD"/>
<path d="M1735.08 373.341L1738.64 380.551L1746.6 381.701L1740.84 387.311L1742.2 395.241L1735.08 391.501L1727.97 395.241L1729.33 387.311L1723.58 381.701L1731.53 380.551L1735.08 373.341Z" fill="white"/>
<mask id="mask0_151_447" style="mask-type:luminance" maskUnits="userSpaceOnUse" x="0" y="0" width="2120" height="1636">
<path d="M2000.52 1334.81C1903.05 1524.25 1655.41 1746.2 991.186 1573.42C20.2855 1320.88 2.90547 478.091 2.90547 478.091C2.90547 478.091 -76.8046 -121.469 598.785 37.8907C1274.38 197.251 1620.14 23.6408 1824.95 1.76076C1956.71 -12.3192 2067.36 59.0608 2108.05 179.431C2122.7 222.761 2136.95 353.581 2052.11 500.971C2003.11 586.051 1963.44 745.081 2026.76 943.031C2042.76 993.141 2081.34 1177.72 2000.52 1334.81Z" fill="white"/>
</mask>
<g mask="url(#mask0_151_447)">
<path d="M1898.14 454.211C1893.81 431.581 1873.87 422.471 1873.87 422.471C1873.87 422.471 1900.63 321.781 1646.33 181.931C1392.07 321.781 1418.79 422.471 1418.79 422.471C1418.79 422.471 1398.85 431.581 1394.52 454.211C1390.19 476.841 1415.75 497.451 1415.75 497.451V1079.96H1876.91V497.451C1876.91 497.451 1902.48 476.851 1898.14 454.211Z" fill="#ACD0ED"/>
<path d="M1426.54 1069.93V492.651L1422.8 489.651C1417.02 484.941 1402.52 469.651 1405.12 456.111C1408.39 439.041 1423.55 431.681 1423.71 431.611L1431.41 428.091L1429.24 419.911C1429.05 419.121 1410.31 325.031 1647.09 193.401C1883.86 325.031 1865.09 419.121 1864.89 420.061L1863.04 428.061L1870.46 431.621C1871.02 431.891 1885.78 439.081 1889.05 456.121C1891.65 469.711 1877.15 484.951 1871.34 489.681L1867.65 492.681V497.461V1069.93H1426.54Z" fill="#81A7CA"/>
<path d="M311.356 1220.44H2091.94V1651.37H294.836L311.356 1220.44Z" fill="#71B7FD"/>
<path d="M311.356 1271.33H2091.94V1702.26H294.836L311.356 1271.33Z" fill="#96C8FD"/>
<path d="M1117.89 497.931C1117.72 497.931 947.015 512.051 911.635 600.271C915.905 616.961 923.185 651.401 916.985 672.841C916.985 672.841 967.315 676.051 1043.35 715.841L1052.85 694.561C1052.85 694.561 1098.66 731.991 1112.98 706.851C1126.78 682.601 1165.76 649.141 1117.89 497.931Z" fill="#FDC7B9"/>
<path d="M1578.83 1597.93L479.696 1603.93C454.336 1604.07 438.036 1575.34 449.956 1551.52L554.476 1342.82C560.306 1331.19 571.666 1323.93 584.046 1323.93H1664.14C1688.43 1323.93 1704.65 1350.58 1694.71 1374.17L1609.22 1576.91C1603.85 1589.63 1591.96 1597.86 1578.83 1597.93Z" fill="#81A7CA"/>
<path d="M969.626 1510.03C969.626 1510.03 924.626 1490.34 886.406 1492.03C848.186 1493.72 737.406 1469.86 806.466 1447.2C875.526 1424.54 874.035 1435.78 897.095 1430.49C920.155 1425.2 939.156 1415.21 962.686 1418.3L977.266 1420.21L969.626 1510.03Z" fill="#F4B5A8"/>
<path d="M1250.17 917.881C1250.17 917.881 1261.25 900.341 1271.56 896.731C1281.87 893.121 1309.48 888.481 1318.25 854.731C1327.02 820.981 1330.36 797.481 1337.07 789.231C1343.78 780.981 1329.85 768.861 1321.33 779.951C1321.33 779.951 1313.33 768.861 1305.09 778.401C1296.85 787.941 1291.42 841.841 1272.09 842.871C1252.76 843.901 1259.46 836.171 1259.46 836.171C1259.46 836.171 1264.62 821.171 1270.04 811.671C1275.46 802.171 1267.7 783.041 1260.23 791.291C1252.76 799.541 1234.71 833.071 1223.88 841.841C1213.05 850.611 1215.35 871.751 1215.35 871.751L1250.17 917.881Z" fill="#FDC7B9"/>
<path d="M1057.23 724.121C1057.23 724.121 983.475 675.121 892.225 670.481L887.065 697.301C887.065 697.301 781.325 903.091 801.445 1101.15C801.445 1101.15 823.105 1164.08 816.915 1212.56C810.725 1261.04 807.635 1252.79 813.825 1285.8C820.015 1318.81 795.255 1436.4 915.945 1439.5C1036.64 1442.6 1278.02 1309.5 1338.89 1319.84C1338.89 1319.84 1211.49 1279.09 1185.96 1239.63C1160.43 1200.17 1105.5 1069.43 1105.5 1069.43C1105.5 1069.43 1289.24 945.651 1206.85 849.331C1206.85 849.331 1158.54 923.211 1108.68 942.811C1108.68 942.811 1072.23 918.571 1053.68 847.911L1057.23 724.121Z" fill="#2165A6"/>
<path d="M903.525 807.161C903.525 807.161 896.305 715.351 989.145 728.761C989.145 728.761 1031.57 776.471 1053.62 847.911C1053.62 847.911 1069.27 914.441 1108.62 942.811C1108.62 942.811 1149.54 932.111 1206.79 849.331C1206.79 849.331 1237.79 882.651 1252.06 911.331C1266.33 940.011 1220.2 1025.33 1105.44 1069.39C1105.44 1069.39 1045.87 1107.3 985.515 1038.39C985.535 1038.48 900.435 922.691 903.525 807.161Z" fill="#2D618A"/>
<path d="M1335.63 1318.8C1335.63 1318.8 1431.9 1340.21 1458.98 1419.12C1486.06 1498.03 1445.15 1541.36 1335.63 1536.72C1226.11 1532.08 961.516 1532.85 952.226 1533.63L947.846 1437.63C947.846 1437.63 1023.15 1427.9 1114.08 1390.33C1221.54 1346.03 1309.8 1319.82 1335.63 1318.8Z" fill="#3B82CA"/>
<path d="M952.265 1533.63C952.265 1533.63 905.075 1519.96 867.425 1526.63C829.775 1533.3 716.815 1524.05 782.325 1492.63C847.835 1461.21 847.825 1472.52 870.005 1464.27C892.185 1456.02 909.715 1443.63 933.445 1443.63H948.155L952.265 1533.63Z" fill="#FDC7B9"/>
<path d="M1119.75 503.821C1119.75 503.821 1011.37 536.901 1010.34 560.621C1009.31 584.341 1016.74 600.271 1016.74 600.271C1016.74 600.271 993.825 579.191 987.635 593.631C981.445 608.071 974.425 652.241 919.135 659.561C919.135 659.561 918.395 614.911 908.935 595.831C898.535 574.881 971.135 519.361 1033.03 503.891C1094.92 488.421 1117.03 490.331 1117.03 490.331L1119.75 503.821Z" fill="#3B82CA"/>
<path d="M1117.9 497.931C1115.09 435.241 994.126 387.641 921.106 451.931C848.086 516.221 911.426 600.021 911.616 600.271C947.016 512.031 1117.73 497.951 1117.9 497.931Z" fill="#2165A6"/>
<path d="M1052.85 694.591C1052.85 694.591 1093.64 745.271 1096.73 765.381C1099.82 785.491 1120.61 694.821 1120.61 694.821C1120.61 694.821 1109.88 715.101 1095.18 714.321C1080.48 713.541 1044.9 681.061 1044.9 681.061L1052.85 694.591Z" fill="#2165A6"/>
<path d="M1618.63 444.921C1613 428.895 1612.98 411.433 1618.58 395.398C1624.18 379.362 1635.06 365.704 1649.44 356.661C1621.51 352.241 1562.6 387.561 1580.63 451.261C1599.06 516.261 1678.51 515.161 1696.03 494.721C1679.42 496.212 1662.8 492.124 1648.78 483.105C1634.76 474.085 1624.15 460.648 1618.63 444.921Z" fill="white"/>
<path d="M1687.08 410.171L1689.49 415.071C1689.56 415.218 1689.66 415.345 1689.8 415.44C1689.93 415.536 1690.08 415.598 1690.25 415.621L1695.65 416.401C1695.84 416.423 1696.02 416.499 1696.16 416.621C1696.31 416.742 1696.42 416.904 1696.48 417.086C1696.54 417.268 1696.55 417.464 1696.5 417.649C1696.45 417.834 1696.35 418.001 1696.21 418.131L1692.31 421.941C1692.19 422.054 1692.1 422.195 1692.05 422.35C1692 422.505 1691.99 422.67 1692.02 422.831L1692.94 428.211C1692.97 428.398 1692.95 428.591 1692.88 428.768C1692.81 428.945 1692.69 429.098 1692.54 429.209C1692.38 429.32 1692.2 429.385 1692.01 429.396C1691.82 429.407 1691.63 429.364 1691.47 429.271L1686.64 426.741C1686.49 426.664 1686.33 426.623 1686.17 426.623C1686 426.623 1685.84 426.664 1685.7 426.741L1680.87 429.271C1680.7 429.361 1680.51 429.402 1680.32 429.389C1680.14 429.377 1679.95 429.312 1679.8 429.201C1679.65 429.09 1679.53 428.938 1679.46 428.763C1679.39 428.588 1679.37 428.396 1679.41 428.211L1680.33 422.831C1680.35 422.67 1680.34 422.505 1680.29 422.35C1680.24 422.195 1680.15 422.054 1680.04 421.941L1676.13 418.131C1675.98 418.001 1675.88 417.834 1675.83 417.649C1675.79 417.464 1675.79 417.268 1675.85 417.086C1675.91 416.904 1676.02 416.742 1676.17 416.621C1676.32 416.499 1676.5 416.423 1676.69 416.401L1682.09 415.621C1682.25 415.598 1682.4 415.536 1682.53 415.44C1682.67 415.345 1682.77 415.218 1682.85 415.071L1685.26 410.171C1685.34 409.996 1685.46 409.848 1685.62 409.744C1685.79 409.641 1685.97 409.585 1686.17 409.585C1686.36 409.585 1686.55 409.641 1686.71 409.744C1686.87 409.848 1687 409.996 1687.08 410.171Z" fill="white"/>
<path d="M1727.87 436.621L1730.28 441.511C1730.35 441.658 1730.45 441.785 1730.59 441.88C1730.72 441.976 1730.87 442.038 1731.04 442.061L1736.44 442.851C1736.62 442.875 1736.8 442.951 1736.95 443.072C1737.09 443.193 1737.2 443.353 1737.26 443.533C1737.32 443.714 1737.33 443.907 1737.28 444.091C1737.23 444.274 1737.13 444.441 1737 444.571L1733.1 448.381C1732.98 448.494 1732.89 448.635 1732.84 448.79C1732.79 448.945 1732.78 449.11 1732.81 449.271L1733.73 454.651C1733.76 454.838 1733.75 455.033 1733.68 455.212C1733.61 455.39 1733.49 455.545 1733.33 455.657C1733.18 455.77 1733 455.836 1732.8 455.847C1732.61 455.858 1732.42 455.815 1732.26 455.721L1727.43 453.181C1727.28 453.104 1727.12 453.063 1726.96 453.063C1726.79 453.063 1726.63 453.104 1726.49 453.181L1721.66 455.721C1721.49 455.815 1721.3 455.858 1721.11 455.847C1720.92 455.836 1720.73 455.77 1720.58 455.657C1720.42 455.545 1720.3 455.39 1720.23 455.212C1720.16 455.033 1720.15 454.838 1720.19 454.651L1721.11 449.271C1721.13 449.11 1721.12 448.945 1721.07 448.79C1721.02 448.635 1720.93 448.494 1720.82 448.381L1716.92 444.571C1716.78 444.441 1716.68 444.274 1716.63 444.091C1716.59 443.907 1716.59 443.714 1716.65 443.533C1716.71 443.353 1716.82 443.193 1716.96 443.072C1717.11 442.951 1717.29 442.875 1717.48 442.851L1722.88 442.061C1723.04 442.038 1723.19 441.976 1723.32 441.88C1723.46 441.785 1723.56 441.658 1723.64 441.511L1726.05 436.621C1726.13 436.446 1726.25 436.298 1726.41 436.194C1726.58 436.091 1726.76 436.035 1726.96 436.035C1727.15 436.035 1727.34 436.091 1727.5 436.194C1727.66 436.298 1727.79 436.446 1727.87 436.621Z" fill="white"/>
<path d="M1724.48 381.031L1726.9 385.921C1726.97 386.069 1727.07 386.198 1727.21 386.296C1727.34 386.394 1727.49 386.457 1727.66 386.481L1733.06 387.261C1733.26 387.274 1733.45 387.347 1733.61 387.47C1733.76 387.593 1733.88 387.761 1733.94 387.952C1734 388.143 1734.01 388.348 1733.95 388.54C1733.89 388.732 1733.78 388.903 1733.63 389.031L1729.72 392.831C1729.6 392.945 1729.51 393.087 1729.46 393.244C1729.41 393.401 1729.4 393.568 1729.43 393.731L1730.35 399.111C1730.38 399.298 1730.36 399.491 1730.29 399.668C1730.22 399.844 1730.1 399.997 1729.95 400.109C1729.79 400.22 1729.61 400.285 1729.42 400.296C1729.23 400.307 1729.04 400.264 1728.88 400.171L1724.06 397.631C1723.9 397.548 1723.73 397.505 1723.56 397.505C1723.38 397.505 1723.21 397.548 1723.06 397.631L1718.24 400.171C1718.07 400.264 1717.88 400.307 1717.69 400.296C1717.5 400.285 1717.32 400.22 1717.16 400.109C1717.01 399.997 1716.89 399.844 1716.82 399.668C1716.75 399.491 1716.73 399.298 1716.77 399.111L1717.69 393.731C1717.72 393.568 1717.7 393.401 1717.65 393.244C1717.6 393.087 1717.51 392.945 1717.4 392.831L1713.5 389.031C1713.35 388.901 1713.25 388.734 1713.2 388.549C1713.16 388.364 1713.16 388.168 1713.22 387.986C1713.28 387.804 1713.39 387.642 1713.54 387.521C1713.69 387.399 1713.87 387.323 1714.06 387.301L1719.45 386.521C1719.61 386.497 1719.76 386.434 1719.9 386.336C1720.03 386.238 1720.13 386.109 1720.21 385.961L1722.63 381.031C1722.7 380.847 1722.83 380.69 1722.99 380.58C1723.16 380.47 1723.35 380.411 1723.55 380.411C1723.75 380.411 1723.94 380.47 1724.11 380.58C1724.27 380.69 1724.4 380.847 1724.48 381.031Z" fill="white"/>
<path d="M534.037 518.268C601.984 450.321 601.984 340.156 534.037 272.209C466.089 204.262 355.925 204.262 287.978 272.209C220.03 340.156 220.03 450.321 287.978 518.268C355.925 586.215 466.089 586.215 534.037 518.268Z" fill="#ACD0ED"/>
<path d="M503.461 487.693C554.522 436.632 554.522 353.845 503.461 302.784C452.4 251.723 369.614 251.723 318.553 302.784C267.492 353.845 267.492 436.632 318.553 487.693C369.614 538.754 452.4 538.754 503.461 487.693Z" fill="#D0E9FD"/>
<path d="M491.545 383.581V389.631C491.54 391.32 490.866 392.939 489.67 394.133C488.475 395.326 486.855 395.998 485.165 396.001H413.105C411.417 395.998 409.798 395.326 408.604 394.132C407.41 392.938 406.738 391.319 406.735 389.631V383.581C406.738 381.892 407.41 380.273 408.604 379.079C409.798 377.885 411.417 377.213 413.105 377.211H485.165C486.855 377.213 488.475 377.885 489.67 379.079C490.866 380.272 491.54 381.891 491.545 383.581Z" fill="#9FC7E3"/>
<path d="M408.866 393.281L404.626 389.031C403.439 387.834 402.772 386.217 402.772 384.531C402.772 382.845 403.439 381.228 404.626 380.031L474.276 310.381C475.473 309.194 477.09 308.528 478.776 308.528C480.461 308.528 482.079 309.194 483.276 310.381L487.556 314.661C488.74 315.859 489.405 317.476 489.405 319.161C489.405 320.846 488.74 322.463 487.556 323.661L417.906 393.311C416.702 394.504 415.074 395.17 413.38 395.165C411.685 395.159 410.062 394.482 408.866 393.281Z" fill="#9FC7E3"/>
<path d="M416.106 374.291C418.755 374.289 421.345 375.073 423.548 376.543C425.752 378.014 427.47 380.105 428.484 382.552C429.499 384.999 429.765 387.692 429.249 390.291C428.732 392.889 427.457 395.276 425.584 397.149C423.711 399.022 421.324 400.298 418.725 400.814C416.127 401.33 413.434 401.064 410.987 400.05C408.54 399.035 406.449 397.317 404.978 395.114C403.508 392.91 402.724 390.32 402.726 387.671C402.726 384.122 404.135 380.719 406.645 378.21C409.154 375.7 412.557 374.291 416.106 374.291Z" fill="#81A7CA"/>
</g>
</svg>
