<?xml version="1.0" encoding="UTF-8" standalone="no"?>
<!DOCTYPE svg PUBLIC "-//W3C//DTD SVG 1.1//EN" "http://www.w3.org/Graphics/SVG/1.1/DTD/svg11.dtd">
<svg width="100%" height="100%" viewBox="0 0 1576 2071" version="1.1" xmlns="http://www.w3.org/2000/svg" xmlns:xlink="http://www.w3.org/1999/xlink" xml:space="preserve" xmlns:serif="http://www.serif.com/" style="fill-rule:evenodd;clip-rule:evenodd;stroke-linejoin:round;stroke-miterlimit:2;">
    <g transform="matrix(1,0,0,1,-487.083,-518.648)">
        <g transform="matrix(4.16667,0,0,4.16667,52.014,930.473)">
            <g transform="matrix(1,0,0,1,-1.36039,-23.3916)">
                <g>
                    <g transform="matrix(2.12276,0,0,2.12276,-332.106,6.61132)">
                        <path d="M358.434,-8.203C356.398,-8.203 354.977,-8.816 354.188,-10.039C353.699,-10.797 353.43,-11.93 353.359,-13.426C353.359,-13.605 353.27,-13.695 353.125,-13.695C352.891,-13.695 352.637,-13.531 352.387,-13.246C350.82,-11.426 349.813,-10.328 349.363,-9.934C347.383,-8.242 345.293,-7.375 343.117,-7.375L343.117,-12.074C345.402,-12.074 347.418,-12.668 349.129,-13.875C349.813,-14.359 351.379,-15.816 353.789,-18.25C354.098,-18.535 354.367,-18.68 354.637,-18.68C355.051,-18.68 355.176,-18.41 354.977,-17.852C354.797,-17.277 354.707,-16.754 354.707,-16.27C354.707,-15.207 355.156,-14.359 356.039,-13.766C356.887,-13.207 357.984,-12.922 359.316,-12.922C361.262,-12.922 362.863,-13.73 364.121,-15.367C364.914,-16.574 365.723,-17.797 366.516,-19.039C366.785,-19.348 367.039,-19.508 367.219,-19.508C367.434,-19.508 367.543,-19.328 367.543,-18.984C367.543,-18.844 367.523,-18.699 367.469,-18.52C367.164,-17.188 367.004,-16.594 367.004,-16.719C367.004,-16.141 367.324,-15.602 367.973,-15.082C368.656,-14.484 369.434,-14.199 370.277,-14.199C371.34,-14.199 372.023,-14.484 372.348,-15.043C372.348,-15.152 372.203,-15.352 371.898,-15.637C371.609,-15.91 371.465,-16.125 371.465,-16.27C371.465,-16.449 371.789,-17.563 372.438,-19.582C372.547,-19.922 372.672,-20.086 372.781,-20.086C373.086,-20.086 373.375,-19.672 373.68,-18.824C373.934,-18.086 374.059,-17.527 374.059,-17.168C374.059,-15.207 373.66,-13.551 372.906,-12.219C371.953,-10.543 370.547,-9.699 368.695,-9.699C367.379,-9.699 366.156,-10.707 365.004,-12.723C363.328,-9.715 361.152,-8.203 358.434,-8.203Z" style="fill:rgb(123,154,99);fill-rule:nonzero;"/>
                    </g>
                    <g transform="matrix(2.12276,0,0,2.12276,-332.106,6.61132)">
                        <path d="M343.117,-7.375C340.074,-7.375 337.805,-8.637 336.277,-11.156C335.773,-11.984 335.34,-13.246 334.98,-14.918C334.691,-16.23 334.457,-16.898 334.262,-16.898C333.324,-16.898 332.102,-16.051 330.605,-14.379C328.211,-11.68 325.996,-9.535 323.965,-7.934L315.918,-7.934C316.277,-8.512 317.215,-9.086 318.762,-9.699C321.355,-10.707 322.957,-11.355 323.566,-11.68C325.637,-12.688 327.367,-13.945 328.754,-15.477C329.977,-16.918 331.219,-18.375 332.441,-19.852C333.449,-21.004 334.332,-21.578 335.07,-21.578C335.809,-21.578 336.277,-20.984 336.457,-19.777C336.762,-17.906 337.141,-16.555 337.59,-15.746C338.922,-13.297 340.777,-12.074 343.117,-12.074L343.117,-7.375Z" style="fill:rgb(123,154,99);fill-rule:nonzero;"/>
                    </g>
                    <g transform="matrix(2.12276,0,0,2.12276,-332.106,6.61132)">
                        <path d="M347.184,-4.98L345.512,-1.742C345.348,-1.398 345.133,-1.219 344.879,-1.219C339.641,-1.219 335.125,-0.445 331.324,1.137C330.406,1.516 327.977,2.723 324.02,4.773C321.371,6.141 319.5,6.824 318.383,6.824L318.383,2.129C320.723,2.129 324.613,0.598 330.066,-2.426C325.207,-3.199 320.363,-3.777 315.574,-4.156C314.676,-4.227 314.227,-4.352 314.227,-4.551C314.227,-4.586 314.227,-4.641 314.262,-4.711C314.641,-5.504 315.18,-6.586 315.898,-7.934L323.965,-7.934C324.973,-7.754 327.742,-7.359 332.262,-6.727C337.969,-6.008 342.559,-5.648 345.996,-5.648C346.879,-5.648 347.328,-5.559 347.328,-5.379C347.328,-5.289 347.273,-5.164 347.184,-4.98Z" style="fill:rgb(123,154,99);fill-rule:nonzero;"/>
                    </g>
                    <g transform="matrix(2.12276,0,0,2.12276,-332.106,6.61132)">
                        <path d="M313.648,-2.695C314.027,-0.52 314.746,0.922 315.809,1.605C316.367,1.965 317.215,2.129 318.367,2.129L318.367,6.824C316.676,6.824 315.379,6.484 314.461,5.781C313.129,4.809 312.227,2.973 311.762,0.309C311.488,-1.168 311.293,-4.605 311.129,-10.004C310.934,-16.23 310.645,-21.055 310.301,-24.477C309.977,-27.664 309.367,-30.688 308.465,-33.566C308.465,-34.34 308.773,-35.473 309.402,-36.984C309.547,-37.363 309.672,-37.543 309.762,-37.543C309.871,-37.543 309.996,-37.398 310.141,-37.078C311.148,-35.148 311.887,-31.855 312.391,-27.195C312.715,-24.172 312.984,-19.418 313.164,-12.902C313.363,-6.891 313.523,-3.488 313.648,-2.695Z" style="fill:rgb(123,154,99);fill-rule:nonzero;"/>
                    </g>
                    <g transform="matrix(2.12276,0,0,2.12276,-332.106,6.61132)">
                        <path d="M309.563,-0.391C309.563,2.504 308.898,4.719 307.586,6.215C305.531,8.625 302.488,10.949 298.492,13.199C293.438,16.004 288.719,17.426 284.348,17.426C278.477,17.426 274.43,14.547 272.215,8.789C271.781,7.672 271.566,6.23 271.566,4.484C271.566,3.332 271.656,2.145 271.836,0.957C272.125,-0.789 272.504,-2.316 273.008,-3.633C273.168,-4.027 273.328,-4.246 273.473,-4.246C273.637,-4.246 273.672,-3.973 273.563,-3.434C273.383,-2.625 273.203,-1.813 273.008,-1.004C272.699,0.437 272.555,1.496 272.555,2.184C272.555,4.559 273.348,6.754 274.934,8.75C277.094,11.414 280.207,12.746 284.309,12.746C287.891,12.746 291.707,11.902 295.738,10.211C298.98,8.859 301.895,7.187 304.488,5.152C306.828,3.332 308.016,2.039 308.016,1.246C308.016,1.137 307.531,0.113 306.559,-1.797C305.406,-4.047 304.543,-6.223 303.984,-8.348C303.77,-9.066 303.516,-9.555 303.211,-9.805C302.922,-10.059 302.762,-10.328 302.762,-10.598C302.762,-10.832 302.992,-11.984 303.426,-14.074C303.48,-14.449 303.57,-14.629 303.695,-14.629C303.82,-14.629 303.984,-14.539 304.164,-14.359C304.758,-13.695 306.055,-12.398 308.016,-10.473C308.32,-10.168 308.484,-9.914 308.484,-9.715C308.484,-9.5 308.305,-9.391 307.926,-9.391C307.512,-9.391 306.898,-9.52 306.09,-9.77C306.16,-9.52 306.809,-8.148 308.051,-5.648C309.059,-3.613 309.563,-1.867 309.563,-0.391Z" style="fill:rgb(123,154,99);fill-rule:nonzero;"/>
                    </g>
                    <g transform="matrix(2.12276,0,0,2.12276,-332.106,6.61132)">
                        <path d="M263.484,-30.145C263.484,-31.641 263.25,-32.883 262.781,-33.836C262.781,-34.395 263.215,-35.691 264.078,-37.742C264.203,-37.977 264.293,-38.102 264.383,-38.102C264.473,-38.102 264.563,-37.977 264.691,-37.707C264.941,-37.168 265.52,-35.691 266.438,-33.313C267.391,-30.813 267.93,-29.266 268.094,-28.688C268.219,-28.258 268.289,-27.934 268.289,-27.715C268.289,-27.016 267.625,-27.43 266.293,-28.977C266.129,-29.156 266.059,-29.066 266.059,-28.672C266.059,-28.527 266.328,-24.727 266.867,-17.277C267.406,-9.824 267.695,-5.504 267.695,-4.316C267.695,-0.68 267.137,2.523 266.023,5.297C265.789,5.855 265.609,6.27 265.465,6.539C265.246,6.898 265.121,6.934 265.066,6.684C265.016,6.41 265.031,5.816 265.141,4.918C265.285,3.676 265.355,2.199 265.355,0.527C265.355,-0.969 265.031,-6.133 264.422,-14.953C263.789,-23.773 263.484,-28.852 263.484,-30.145Z" style="fill:rgb(123,154,99);fill-rule:nonzero;"/>
                    </g>
                    <g transform="matrix(2.12276,0,0,2.12276,-332.106,6.61132)">
                        <path d="M256.625,-7.664C255.816,-10.078 255.277,-12.328 255.008,-14.414C254.898,-15.223 254.809,-15.727 254.773,-15.926C254.664,-16.359 254.449,-16.789 254.141,-17.203C254.359,-17.926 254.699,-18.934 255.168,-20.227C255.328,-20.605 255.473,-20.785 255.582,-20.785C255.707,-20.785 255.887,-20.605 256.176,-20.227C257.418,-18.52 258.445,-16.969 259.289,-15.621C259.633,-15.043 259.812,-14.648 259.812,-14.414C259.812,-14.254 259.722,-14.164 259.578,-14.164C259.254,-14.164 258.695,-14.414 257.887,-14.938C257.812,-14.938 257.742,-14.883 257.707,-14.773C257.976,-13.75 258.426,-12.363 259.055,-10.582C260.461,-6.566 261.18,-3.648 261.18,-1.832C261.18,0.004 260.89,1.586 260.351,2.957C259.453,5.258 257.867,6.43 255.637,6.43C253.262,6.43 251.387,5.387 250.02,3.332C249.191,2.09 248.453,0.238 247.805,-2.227C247.535,0.254 246.742,2.398 245.449,4.199C243.848,6.359 241.813,7.457 239.328,7.457C236.594,7.457 234.684,6.141 233.586,3.531C232.973,2.074 232.688,0.344 232.688,-1.652C232.688,-4.262 232.992,-6.711 233.605,-8.977C233.785,-9.59 233.875,-10.004 233.875,-10.203C233.875,-10.309 233.84,-10.363 233.785,-10.363C233.676,-10.363 233.426,-10.059 233.027,-9.445C232.414,-8.492 231.785,-6.566 231.102,-3.633C230.238,0.129 229.66,2.398 229.391,3.172C229.031,4.25 228.527,5.133 227.879,5.781C227.34,6.32 226.891,6.609 226.492,6.609C224.746,6.609 223.398,5.492 222.445,3.281C221.652,1.426 221.273,-0.789 221.273,-3.398C221.273,-5.234 221.543,-7.215 222.102,-9.355C222.227,-9.844 222.355,-10.203 222.48,-10.438C222.66,-10.723 222.77,-10.777 222.84,-10.543C222.895,-10.293 222.859,-9.859 222.75,-9.211C222.426,-7.594 222.266,-6.098 222.266,-4.75C222.266,0.543 223.379,3.191 225.594,3.191C226.547,3.191 227.34,2.469 227.969,1.047C228.367,0.164 228.836,-1.543 229.391,-4.027C230.039,-6.801 230.578,-8.816 231.031,-10.113C231.551,-11.57 232.199,-12.883 232.957,-14.02C233.785,-15.297 234.504,-15.945 235.117,-15.945C235.621,-15.945 235.855,-15.406 235.855,-14.344C235.855,-13.477 235.621,-11.695 235.117,-9.016C234.613,-6.332 234.379,-4.531 234.379,-3.613C234.379,-1.617 234.793,-0.051 235.621,1.082C236.465,2.199 237.617,2.777 239.094,2.777C241.793,2.777 243.793,1.93 245.141,0.238C246.203,-1.094 246.742,-2.73 246.742,-4.695C246.742,-6.566 246.582,-8.383 246.258,-10.129C246.043,-11.355 245.754,-12.543 245.375,-13.641C245.07,-14.613 244.906,-15.063 244.906,-15.008C244.906,-16.09 245.25,-17.547 245.953,-19.418C246.113,-19.813 246.238,-20.012 246.328,-20.031C246.438,-20.012 246.617,-19.762 246.871,-19.219C247.879,-17.148 248.672,-13.965 249.246,-9.664C249.785,-5.648 250.578,-2.77 251.586,-1.039C252.613,0.687 254.18,1.551 256.265,1.551C258.012,1.551 259.164,0.902 259.722,-0.355C259.722,-0.789 259.344,-1.723 258.605,-3.164C257.672,-5 257.004,-6.496 256.625,-7.664Z" style="fill:rgb(123,154,99);fill-rule:nonzero;"/>
                    </g>
                    <g transform="matrix(2.12276,0,0,2.12276,-332.106,6.61132)">
                        <path d="M285.496,-7.23C285.445,-7.285 285.445,-7.375 285.496,-7.52L286.992,-10.598C287.082,-10.777 287.191,-10.867 287.297,-10.867C287.441,-10.867 288.125,-10.473 289.313,-9.664C290.504,-8.836 291.098,-8.367 291.098,-8.223C291.098,-7.684 290.574,-6.586 289.512,-4.891C289.387,-4.66 289.262,-4.605 289.117,-4.711C287.945,-5.613 286.738,-6.457 285.496,-7.23Z" style="fill:rgb(123,154,99);fill-rule:nonzero;"/>
                    </g>
                    <g transform="matrix(2.12276,0,0,2.12276,-332.106,6.61132)">
                        <path d="M338.238,5.242C338.184,5.187 338.184,5.098 338.238,4.953L339.73,1.875C339.82,1.695 339.93,1.605 340.039,1.605C340.184,1.605 340.867,2 342.055,2.812C343.242,3.641 343.836,4.109 343.836,4.25C343.836,4.793 343.313,5.891 342.254,7.582C342.125,7.816 342,7.871 341.855,7.762C340.688,6.863 339.48,6.016 338.238,5.242Z" style="fill:rgb(123,154,99);fill-rule:nonzero;"/>
                    </g>
                    <g transform="matrix(2.12276,0,0,2.12276,-332.106,6.61132)">
                        <path d="M361.352,-32.863C361.492,-33.313 361.512,-33.781 361.441,-34.23C361.352,-34.734 361.117,-34.969 360.758,-34.969C360.594,-34.969 360.359,-34.898 360.055,-34.734C359.766,-34.574 359.621,-34.414 359.621,-34.25C359.621,-33.891 360.199,-33.422 361.352,-32.863ZM360.449,-30.848C359.012,-31.605 358.273,-32.395 358.273,-33.223C358.273,-34.23 358.738,-35.133 359.656,-35.977C360.574,-36.805 361.352,-37.113 361.961,-36.879C362.465,-36.699 362.734,-36.141 362.734,-35.223C362.734,-34.395 362.555,-33.457 362.215,-32.434C362.953,-32 363.402,-31.641 363.602,-31.352C363.602,-30.957 363.277,-30.289 362.609,-29.355C362.43,-29.641 361.98,-30.004 361.277,-30.434C360.469,-29.301 359.441,-28.273 358.184,-27.355C356.762,-26.313 355.465,-25.52 354.277,-24.98C354.023,-24.871 352.656,-24.332 350.152,-23.414C349.758,-23.27 349.508,-23.199 349.379,-23.199C349.309,-23.199 349.289,-23.215 349.289,-23.254C349.289,-23.344 349.508,-23.539 349.938,-23.809C351.773,-24.91 353.629,-26.008 355.48,-27.121C357.715,-28.473 359.371,-29.715 360.449,-30.848Z" style="fill:rgb(123,154,99);fill-rule:nonzero;"/>
                    </g>
                    <g transform="matrix(2.12276,0,0,2.12276,-332.106,6.61132)">
                        <path d="M348.047,-35.797C348.047,-35.402 347.527,-34.465 346.5,-33.043C345.328,-31.426 344.23,-30.254 343.188,-29.5C342.523,-29.031 340.289,-28.293 336.512,-27.301C335.844,-27.121 335.504,-27.066 335.504,-27.105C335.555,-27.176 335.789,-27.375 336.203,-27.699C336.691,-28.078 338.039,-28.832 340.234,-30.004C342.344,-31.117 343.586,-31.84 343.945,-32.145C343.996,-32.215 344.035,-32.27 344.035,-32.344C344.035,-32.848 342.16,-33.082 338.418,-33.082C338.398,-33.082 337.68,-33.063 336.258,-32.992C335.574,-32.953 335.23,-33.008 335.23,-33.133C335.23,-33.223 335.305,-33.422 335.484,-33.727L336.816,-35.961C337.211,-36.625 337.914,-37.039 338.941,-37.203C339.316,-37.273 340.199,-37.293 341.551,-37.293C345.871,-37.293 348.047,-36.805 348.047,-35.797Z" style="fill:rgb(123,154,99);fill-rule:nonzero;"/>
                    </g>
                    <g transform="matrix(2.12276,0,0,2.12276,-332.106,6.61132)">
                        <path d="M317.609,-24.602C321.949,-26.188 326.555,-27.859 331.434,-29.641C331.688,-29.73 331.828,-29.77 331.867,-29.73C331.938,-29.695 331.922,-29.551 331.828,-29.336C331.543,-28.652 331.324,-28.238 331.145,-28.094C327.059,-26.617 322.273,-24.746 316.816,-22.477C316.98,-23.125 317.25,-23.828 317.609,-24.602Z" style="fill:rgb(123,154,99);fill-rule:nonzero;"/>
                    </g>
                    <g transform="matrix(2.12276,0,0,2.12276,-332.106,6.61132)">
                        <path d="M277.613,-14.703C280.387,-16.375 284.074,-18.23 288.648,-20.246C292.68,-22.027 294.91,-22.91 295.344,-22.91C295.398,-22.91 295.414,-22.855 295.414,-22.801C295.414,-22.621 295.309,-22.336 295.074,-21.938C294.859,-21.523 294.66,-21.309 294.535,-21.254C293.203,-20.77 290.645,-19.617 286.848,-17.797C282.602,-15.746 279.27,-14 276.82,-12.559C276.949,-13.191 277.219,-13.91 277.613,-14.703Z" style="fill:rgb(123,154,99);fill-rule:nonzero;"/>
                    </g>
                    <g transform="matrix(2.12276,0,0,2.12276,-332.106,6.61132)">
                        <path d="M248.363,-27.895C248.363,-27.285 248.219,-26.656 247.949,-26.008C247.59,-25.16 247.141,-24.727 246.563,-24.727C245.684,-24.727 245.051,-25.34 244.676,-26.563C244.242,-25.016 243.469,-24.223 242.352,-24.223C241.922,-24.223 241.559,-24.441 241.234,-24.871C240.895,-25.359 240.715,-26.023 240.715,-26.836L240.715,-28.762C240.715,-28.906 240.605,-29.012 240.391,-29.086C240.176,-29.137 240.086,-29.301 240.086,-29.57C240.086,-29.984 240.266,-30.398 240.625,-30.813C240.949,-31.172 241.199,-31.352 241.363,-31.352C241.578,-31.352 241.703,-30.938 241.703,-30.094C241.703,-29.641 241.668,-29.281 241.598,-28.996C241.523,-28.688 241.488,-28.438 241.488,-28.219C241.488,-27.754 241.578,-27.32 241.758,-26.906C241.973,-26.422 242.262,-26.168 242.586,-26.168C243,-26.168 243.395,-26.367 243.773,-26.746C244.133,-27.141 244.332,-27.574 244.332,-28.094C244.332,-28.398 244.242,-28.906 244.063,-29.625C243.883,-30.344 243.809,-30.777 243.793,-30.957C243.809,-31.117 243.883,-31.352 244.043,-31.695C244.188,-32.035 244.313,-32.199 244.387,-32.199C244.531,-32.199 244.711,-31.711 244.945,-30.758C245.16,-29.805 245.285,-29.102 245.285,-28.652C245.285,-27.34 245.789,-26.672 246.797,-26.672C247.23,-26.672 247.52,-26.906 247.625,-27.34C246.742,-28.867 246.313,-30.039 246.313,-30.848C246.313,-31.316 246.422,-31.73 246.652,-32.09C246.816,-32.344 246.926,-32.484 246.996,-32.484C247.051,-32.484 247.105,-32.344 247.141,-32.02C247.176,-31.586 247.246,-31.227 247.34,-30.957C247.355,-30.922 247.57,-30.379 247.984,-29.336C248.238,-28.707 248.363,-28.219 248.363,-27.895Z" style="fill:rgb(123,154,99);fill-rule:nonzero;"/>
                    </g>
                    <g transform="matrix(2.12276,0,0,2.12276,-332.106,6.61132)">
                        <path d="M235.945,-33.512C240.281,-35.098 244.891,-36.77 249.77,-38.551C250.02,-38.641 250.164,-38.68 250.199,-38.641C250.273,-38.605 250.254,-38.461 250.164,-38.246C249.875,-37.563 249.66,-37.148 249.48,-37.004C245.395,-35.527 240.605,-33.656 235.152,-31.387C235.313,-32.035 235.586,-32.738 235.945,-33.512Z" style="fill:rgb(123,154,99);fill-rule:nonzero;"/>
                    </g>
                    <g transform="matrix(2.12276,0,0,2.12276,-332.106,6.61132)">
                        <path d="M231.48,-21.633C231.086,-22.516 230.398,-23.164 229.43,-23.578C229.43,-22.711 229.34,-22.012 229.141,-21.488C229.266,-21.453 230.023,-21.344 231.391,-21.164C231.48,-21.145 231.535,-21.145 231.551,-21.184C231.625,-21.234 231.605,-21.398 231.48,-21.633ZM228.422,-21.633C228.547,-22.082 228.547,-22.566 228.422,-23.074C228.277,-23.648 228.023,-23.918 227.664,-23.918C227.465,-23.918 227.18,-23.738 226.816,-23.379C226.457,-23.02 226.277,-22.75 226.277,-22.566C226.277,-22.117 226.996,-21.813 228.422,-21.633ZM226.133,-24.133C225.848,-25.105 225.918,-25.789 226.313,-26.188C226.621,-26.512 226.996,-26.656 227.41,-26.656C227.824,-26.656 228.293,-26.527 228.816,-26.242C230.672,-25.23 231.895,-23.992 232.508,-22.531C232.543,-22.441 232.578,-22.316 232.578,-22.172C232.578,-21.668 232.414,-21.094 232.094,-20.426C231.785,-19.777 231.48,-19.438 231.191,-19.453C231.086,-19.438 230.219,-19.527 228.602,-19.707C227.789,-18.574 226.781,-17.563 225.594,-16.684C224.172,-15.637 222.859,-14.848 221.672,-14.305C221.418,-14.18 220.051,-13.66 217.547,-12.742C217.152,-12.598 216.898,-12.523 216.758,-12.523C216.684,-12.523 216.664,-12.543 216.664,-12.578C216.664,-12.648 216.883,-12.848 217.332,-13.137C219.168,-14.215 220.984,-15.297 222.82,-16.375C224.91,-17.602 226.531,-18.77 227.664,-19.867C226.223,-20.191 225.504,-20.859 225.504,-21.832C225.504,-22.641 225.703,-23.414 226.133,-24.133Z" style="fill:rgb(123,154,99);fill-rule:nonzero;"/>
                    </g>
                    <g transform="matrix(2.12276,0,0,2.12276,-332.106,6.61132)">
                        <path d="M281.539,-37.543C282.367,-37.543 283.195,-36.754 284.023,-35.168C284.777,-33.711 285.301,-32.074 285.59,-30.273C285.625,-30.109 285.641,-30.004 285.641,-29.984C285.68,-29.93 285.695,-29.93 285.715,-29.984C285.73,-30.004 285.77,-30.109 285.82,-30.273C286.055,-31.82 286.469,-33.855 287.102,-36.391C287.695,-37.813 288.344,-38.516 289.043,-38.516C289.402,-38.516 289.766,-38.281 290.125,-37.797C290.43,-37.383 290.594,-37.039 290.594,-36.77C290.594,-36.574 290.539,-36.301 290.43,-35.977C290.285,-35.527 290.125,-35.313 289.926,-35.313C289.855,-35.313 289.676,-35.492 289.422,-35.816C289.152,-36.16 288.883,-36.32 288.594,-36.32C288.02,-36.32 287.352,-34.305 286.633,-30.254C286.398,-28.977 286.129,-28.078 285.859,-27.535C285.641,-27.176 285.48,-26.996 285.336,-26.996C285.211,-26.996 285.156,-27.176 285.156,-27.5C285.156,-28.023 284.813,-29.301 284.148,-31.297C283.465,-33.352 282.996,-34.375 282.762,-34.375C282.582,-34.375 282.473,-34.324 282.438,-34.215C282.383,-34.105 282.238,-34.051 282.008,-34.051C281.754,-34.051 281.395,-34.25 280.961,-34.645C280.547,-35.043 280.332,-35.348 280.332,-35.582C280.332,-35.691 280.512,-36.051 280.871,-36.645C281.23,-37.258 281.449,-37.543 281.539,-37.543Z" style="fill:rgb(123,154,99);fill-rule:nonzero;"/>
                    </g>
                    <g transform="matrix(2.12276,0,0,2.12276,-332.106,6.61132)">
                        <path d="M345.707,9.148C344.43,9.527 343.691,9.723 343.492,9.723C343.457,9.723 343.441,9.707 343.441,9.687C343.441,9.617 343.906,9.273 344.879,8.699C345.781,8.211 347.184,7.223 349.094,5.781C350.047,4.844 351.395,3.352 353.125,1.301C354.328,-0.105 355.609,-1.309 356.957,-2.316C358.633,-3.543 360.305,-4.137 361.98,-4.137C362.375,-4.137 362.914,-4.027 363.563,-3.793C364.23,-3.578 364.789,-3.453 365.258,-3.453C366.121,-3.453 366.82,-3.793 367.363,-4.441C367.777,-5.109 368.207,-5.758 368.621,-6.422C368.93,-6.891 369.199,-7.125 369.434,-7.125C369.559,-7.125 369.613,-7.016 369.613,-6.801C369.613,-6.496 369.469,-5.992 369.18,-5.289C369.055,-4.945 369.863,-4.766 371.645,-4.766C371.844,-4.766 371.934,-4.82 371.969,-4.91C371.988,-4.965 371.879,-5.395 371.645,-6.242C371.574,-6.477 371.684,-6.816 371.969,-7.27C372.438,-8.059 372.707,-8.422 372.816,-8.313C373.23,-7.898 373.445,-7.25 373.445,-6.387C373.445,-5.668 373.266,-4.82 372.926,-3.848C372.602,-2.895 372.277,-2.301 371.969,-2.102C371.16,-1.563 369.938,-1.707 368.242,-2.516C366.84,-1.039 365.453,-0.285 364.086,-0.285C363.691,-0.285 363.188,-0.391 362.555,-0.609C361.945,-0.824 361.477,-0.934 361.172,-0.934C358.867,-0.934 356.508,0.164 354.113,2.363C352.387,4.07 350.641,5.781 348.875,7.492C347.832,8.301 346.77,8.84 345.707,9.148Z" style="fill:rgb(123,154,99);fill-rule:nonzero;"/>
                    </g>
                </g>
            </g>
        </g>
        <g transform="matrix(4.16667,0,0,4.16667,52.014,930.473)">
            <g transform="matrix(1,0,0,1,-3.16274,-30.772)">
                <g>
                    <g transform="matrix(2.12276,0,0,2.12276,-332.106,6.61132)">
                        <path d="M360.793,36.633C363.836,35.555 367.145,34.383 370.691,33.125C370.945,33.035 371.09,32.996 371.141,33.035C371.215,33.07 371.195,33.215 371.09,33.43C370.816,34.113 370.586,34.527 370.422,34.672C367.414,35.715 363.941,37.082 360,38.793C360.16,38.129 360.434,37.406 360.793,36.633Z" style="fill:rgb(255,97,6);fill-rule:nonzero;"/>
                    </g>
                    <g transform="matrix(2.12276,0,0,2.12276,-332.106,6.61132)">
                        <path d="M341.027,30.441C341.027,30.836 340.508,31.773 339.48,33.195C338.309,34.816 337.211,35.984 336.168,36.742C335.504,37.211 333.27,37.949 329.488,38.937C328.824,39.117 328.48,39.172 328.48,39.137C328.535,39.062 328.77,38.867 329.184,38.543C329.672,38.164 331.02,37.406 333.215,36.238C335.32,35.121 336.563,34.402 336.926,34.094C336.977,34.023 337.016,33.969 337.016,33.898C337.016,33.395 335.141,33.16 331.398,33.16C331.379,33.16 330.66,33.176 329.238,33.25C328.555,33.285 328.211,33.23 328.211,33.105C328.211,33.016 328.285,32.816 328.465,32.512L329.797,30.281C330.191,29.613 330.895,29.199 331.922,29.039C332.297,28.965 333.18,28.949 334.531,28.949C338.852,28.949 341.027,29.434 341.027,30.441Z" style="fill:rgb(255,97,6);fill-rule:nonzero;"/>
                    </g>
                    <g transform="matrix(2.12276,0,0,2.12276,-332.106,6.61132)">
                        <path d="M295.109,29.594C295.254,29.145 295.273,28.676 295.199,28.227C295.109,27.723 294.875,27.488 294.516,27.488C294.355,27.488 294.121,27.562 293.813,27.723C293.527,27.887 293.383,28.047 293.383,28.211C293.383,28.57 293.957,29.039 295.109,29.594ZM294.211,31.613C292.77,30.855 292.031,30.062 292.031,29.234C292.031,28.227 292.5,27.328 293.418,26.48C294.336,25.652 295.109,25.348 295.723,25.582C296.227,25.762 296.496,26.32 296.496,27.238C296.496,28.066 296.316,29 295.973,30.027C296.711,30.461 297.16,30.82 297.359,31.109C297.359,31.504 297.035,32.168 296.371,33.105C296.191,32.816 295.738,32.457 295.039,32.027C294.227,33.16 293.203,34.187 291.941,35.105C290.52,36.148 289.223,36.941 288.035,37.48C287.785,37.586 286.414,38.129 283.914,39.047C283.52,39.191 283.266,39.262 283.141,39.262C283.066,39.262 283.051,39.242 283.051,39.207C283.051,39.117 283.266,38.918 283.699,38.648C285.535,37.551 287.387,36.453 289.242,35.336C291.473,33.988 293.129,32.746 294.211,31.613Z" style="fill:rgb(255,97,6);fill-rule:nonzero;"/>
                    </g>
                    <g transform="matrix(2.12276,0,0,2.12276,-332.106,6.61132)">
                        <path d="M240.48,68.422C243.523,67.34 246.836,66.172 250.379,64.91C250.633,64.82 250.777,64.785 250.828,64.82C250.902,64.859 250.883,65 250.777,65.219C250.508,65.902 250.273,66.316 250.109,66.461C247.105,67.504 243.629,68.871 239.688,70.582C239.852,69.914 240.121,69.195 240.48,68.422Z" style="fill:rgb(255,97,6);fill-rule:nonzero;"/>
                    </g>
                    <g transform="matrix(2.12276,0,0,2.12276,-332.106,6.61132)">
                        <path d="M241.992,26.609C241.992,27.219 241.848,27.852 241.578,28.496C241.219,29.344 240.77,29.777 240.191,29.777C239.309,29.777 238.68,29.164 238.301,27.941C237.871,29.488 237.098,30.281 235.98,30.281C235.547,30.281 235.188,30.062 234.863,29.633C234.523,29.145 234.344,28.48 234.344,27.668L234.344,25.742C234.344,25.602 234.234,25.492 234.02,25.418C233.801,25.367 233.711,25.203 233.711,24.934C233.711,24.52 233.891,24.105 234.254,23.691C234.574,23.332 234.828,23.152 234.988,23.152C235.207,23.152 235.332,23.566 235.332,24.41C235.332,24.863 235.297,25.223 235.223,25.508C235.152,25.816 235.117,26.066 235.117,26.285C235.117,26.75 235.207,27.184 235.387,27.598C235.602,28.082 235.891,28.336 236.215,28.336C236.629,28.336 237.023,28.137 237.402,27.758C237.762,27.363 237.961,26.934 237.961,26.41C237.961,26.105 237.871,25.602 237.691,24.879C237.512,24.16 237.438,23.727 237.422,23.547C237.438,23.387 237.512,23.152 237.672,22.809C237.816,22.469 237.941,22.305 238.016,22.305C238.156,22.305 238.34,22.793 238.57,23.746C238.789,24.699 238.914,25.402 238.914,25.852C238.914,27.164 239.418,27.832 240.426,27.832C240.859,27.832 241.145,27.598 241.254,27.164C240.371,25.637 239.941,24.465 239.941,23.656C239.941,23.187 240.047,22.773 240.281,22.414C240.445,22.16 240.551,22.02 240.625,22.02C240.68,22.02 240.73,22.16 240.77,22.484C240.805,22.918 240.875,23.277 240.965,23.547C240.984,23.582 241.199,24.125 241.613,25.168C241.867,25.797 241.992,26.285 241.992,26.609Z" style="fill:rgb(255,97,6);fill-rule:nonzero;"/>
                    </g>
                    <g transform="matrix(2.12276,0,0,2.12276,-332.106,6.61132)">
                        <path d="M225.828,31.863C225.434,30.98 224.746,30.332 223.777,29.918C223.777,30.785 223.688,31.484 223.488,32.008C223.613,32.043 224.371,32.152 225.738,32.332C225.828,32.352 225.883,32.352 225.898,32.312C225.973,32.258 225.953,32.098 225.828,31.863ZM222.77,31.863C222.895,31.414 222.895,30.926 222.77,30.422C222.625,29.848 222.371,29.578 222.012,29.578C221.813,29.578 221.527,29.758 221.164,30.117C220.805,30.477 220.625,30.746 220.625,30.926C220.625,31.379 221.348,31.684 222.77,31.863ZM220.48,29.363C220.195,28.391 220.266,27.707 220.66,27.309C220.969,26.984 221.348,26.84 221.762,26.84C222.176,26.84 222.641,26.969 223.164,27.254C225.02,28.266 226.242,29.504 226.855,30.965C226.891,31.055 226.926,31.18 226.926,31.324C226.926,31.828 226.766,32.402 226.441,33.07C226.133,33.719 225.828,34.059 225.539,34.043C225.434,34.059 224.566,33.969 222.949,33.789C222.137,34.922 221.129,35.934 219.941,36.812C218.52,37.859 217.207,38.648 216.02,39.191C215.766,39.316 214.398,39.836 211.895,40.754C211.5,40.898 211.246,40.973 211.105,40.973C211.031,40.973 211.016,40.953 211.016,40.918C211.016,40.844 211.23,40.648 211.68,40.359C213.516,39.281 215.336,38.199 217.172,37.121C219.258,35.895 220.879,34.727 222.012,33.629C220.57,33.305 219.852,32.637 219.852,31.664C219.852,30.855 220.051,30.082 220.48,29.363Z" style="fill:rgb(255,97,6);fill-rule:nonzero;"/>
                    </g>
                    <g transform="matrix(2.12276,0,0,2.12276,-332.106,6.61132)">
                        <path d="M265.375,40.414C265.43,40.305 265.465,40.234 265.52,40.215C265.535,40.18 265.57,40.18 265.59,40.234C265.609,40.27 265.609,40.359 265.59,40.469C265.48,41.352 265.211,42.16 264.816,42.863C264.422,43.562 263.988,43.922 263.52,43.922C263.016,43.922 262.621,43.672 262.352,43.113C262.078,42.574 261.972,41.836 262.008,40.918C262.043,39.766 262.477,38.109 263.305,35.895C264.023,33.953 264.652,32.582 265.195,31.773C265.43,31.414 265.57,31.215 265.66,31.215C265.66,31.27 265.609,31.484 265.445,31.844C264.277,34.457 263.504,36.562 263.16,38.164C263.035,38.812 262.961,39.387 262.961,39.91C262.961,40.629 263.09,41.168 263.359,41.512C263.555,41.816 263.773,41.945 263.988,41.891C264.438,41.801 264.906,41.312 265.375,40.414Z" style="fill:rgb(255,97,6);fill-rule:nonzero;"/>
                    </g>
                    <g transform="matrix(2.12276,0,0,2.12276,-332.106,6.61132)">
                        <path d="M374.922,30.785C373.949,29.09 372.148,26.176 369.539,22.055C367.129,18.238 365.598,15.898 364.949,14.98C364.715,14.656 364.32,14.187 363.762,13.613C363.348,13.18 363.133,12.891 363.133,12.746L363.223,8.285C363.223,7.832 363.348,7.602 363.563,7.602C363.672,7.602 363.816,7.672 363.977,7.816L371.988,14.871C372.473,15.305 372.727,15.629 372.707,15.844C372.707,15.988 372.582,16.059 372.328,16.043C371.969,16.043 371.375,15.879 370.547,15.52C369.953,15.285 369.648,15.23 369.648,15.34C369.648,15.41 369.738,15.574 369.918,15.824C372.816,19.875 375.48,24.449 377.945,29.523C380.32,34.473 381.473,39.082 381.402,43.348C381.293,49.199 379.422,54.598 375.77,59.512C373.844,62.121 371.684,63.941 369.305,64.984C368.371,65.398 366.75,65.883 364.445,66.441C362.16,67 360.484,67.305 359.406,67.379C358.957,67.414 358.738,67.379 358.738,67.25C358.758,67.145 358.957,66.945 359.387,66.676C361.492,65.543 364.914,63.578 369.664,60.773C376.074,56.758 379.332,51.285 379.457,44.375C379.512,40.738 378,36.219 374.922,30.785Z" style="fill:rgb(255,97,6);fill-rule:nonzero;"/>
                    </g>
                    <g transform="matrix(2.12276,0,0,2.12276,-332.106,6.61132)">
                        <path d="M353.504,42.375L345.223,40.359C345.348,40.16 346.41,39.785 348.406,39.227C351.09,38.469 353.285,37.77 355.016,37.066C355.844,36.758 356.328,36.328 356.418,35.75C356.508,35.41 356.563,33.555 356.563,30.172C356.563,28.426 356.438,25.816 356.203,22.324C355.969,18.852 355.859,16.781 355.859,16.113C355.859,14.621 355.625,13.379 355.141,12.422C355.141,11.848 355.59,10.551 356.453,8.52C356.563,8.285 356.652,8.156 356.742,8.156C356.832,8.156 356.941,8.285 357.066,8.52C357.316,9.094 357.895,10.551 358.793,12.926C359.746,15.43 360.305,16.977 360.484,17.57C360.574,18.004 360.629,18.328 360.629,18.543C360.629,19.246 359.98,18.812 358.668,17.285C358.508,17.066 358.434,17.156 358.434,17.57C358.434,17.699 358.508,18.977 358.668,21.441C358.813,23.891 358.902,25.547 358.902,26.375C358.902,30.82 358.598,34.043 358.004,36.039C357.246,38.703 355.754,40.809 353.504,42.375Z" style="fill:rgb(255,97,6);fill-rule:nonzero;"/>
                    </g>
                    <g transform="matrix(2.12276,0,0,2.12276,-332.106,6.61132)">
                        <path d="M374.977,41.422L373.879,44.66C373.789,44.949 373.375,45.184 372.637,45.363C365.363,47.289 358.793,49.504 352.926,51.988L352.926,47.758C354.113,47.234 356.453,46.391 359.91,45.184C352.422,44.715 347.328,44.48 344.609,44.48C343.871,44.48 343.586,44.246 343.781,43.816C344.035,42.969 344.52,41.816 345.203,40.359L353.27,40.359L373.789,40.754C374.742,40.754 375.137,40.973 374.977,41.422Z" style="fill:rgb(255,97,6);fill-rule:nonzero;"/>
                    </g>
                    <g transform="matrix(2.12276,0,0,2.12276,-332.106,6.61132)">
                        <path d="M355.156,62.105C355.77,62.105 356.074,61.941 356.074,61.602C356.074,61.113 355.645,60.699 354.781,60.34C354.148,60.07 353.105,60.07 351.664,60.32C352.441,61.508 353.594,62.105 355.156,62.105ZM347.293,57.676C347.219,57.102 347.184,56.559 347.184,56C347.184,52.078 349.094,49.324 352.906,47.758L352.906,51.969C351.809,52.437 350.801,52.961 349.922,53.5C349.039,54.059 348.605,54.437 348.605,54.617C348.605,55.066 348.91,55.75 349.543,56.703C352.133,55.949 353.734,55.586 354.328,55.586C355.625,55.586 356.633,56.129 357.391,57.207C358.164,58.289 358.543,59.746 358.543,61.547C358.543,63.074 358.199,64.316 357.551,65.309C356.887,66.281 356.023,66.785 354.941,66.785C353.465,66.785 352.027,66.062 350.641,64.625C349.613,63.543 348.84,62.391 348.316,61.168C336.188,66.855 323.227,69.699 309.457,69.699C302.598,69.699 297.18,68.891 293.203,67.289L293.203,62.609C294.426,63.203 296.91,63.742 300.637,64.246C304.363,64.77 307.781,65.02 310.914,65.02C317.449,65.02 323.676,64.391 329.598,63.164C335.105,62.016 340.992,60.195 347.293,57.676Z" style="fill:rgb(255,97,6);fill-rule:nonzero;"/>
                    </g>
                    <g transform="matrix(2.12276,0,0,2.12276,-332.106,6.61132)">
                        <path d="M289.313,59.816C290.555,61.023 291.836,61.941 293.184,62.59L293.184,67.27C289.457,65.738 286.992,63.652 285.73,60.988C284.852,59.098 284.129,55.895 283.57,51.34C283.195,53.57 282.422,55.406 281.25,56.828C278.965,59.672 276.176,62.141 272.914,64.211C269.152,66.605 265.715,67.809 262.586,67.809C260.945,67.809 259.703,67.125 258.859,65.758C258.156,64.641 257.812,63.238 257.812,61.562C257.812,58.125 258.68,54.777 260.426,51.52C260.93,50.582 261.254,50.117 261.394,50.117C261.414,50.133 261.433,50.168 261.433,50.242C261.433,50.512 261.289,51.035 260.965,51.809C259.543,55.246 258.84,57.785 258.84,59.422C258.84,61.977 260.117,63.254 262.676,63.254C266.184,63.254 269.965,61.852 274.016,59.078C277.184,56.937 279.629,54.668 281.395,52.277C281.953,51.539 282.223,51.16 282.238,51.125C282.422,50.801 282.492,50.312 282.492,49.664C282.492,48.227 282.098,45.902 281.285,42.734C280.656,40.289 279.18,36.527 276.859,31.449C276.785,31.324 276.859,30.695 277.039,29.559C277.199,28.516 277.344,27.742 277.469,27.254C277.598,26.699 277.828,26.609 278.117,26.984C280.871,30.566 282.887,35.59 284.184,41.996C284.852,45.562 285.516,49.109 286.184,52.672C286.957,56.164 288,58.539 289.313,59.816Z" style="fill:rgb(255,97,6);fill-rule:nonzero;"/>
                    </g>
                    <g transform="matrix(2.12276,0,0,2.12276,-332.106,6.61132)">
                        <path d="M249.984,47.199C249.176,44.789 248.633,42.539 248.363,40.449C248.258,39.641 248.164,39.137 248.129,38.937C248.023,38.504 247.805,38.074 247.5,37.66C247.715,36.941 248.059,35.934 248.527,34.637C248.688,34.258 248.832,34.078 248.941,34.078C249.066,34.078 249.246,34.258 249.535,34.637C250.777,36.344 251.801,37.895 252.648,39.242C252.988,39.82 253.172,40.215 253.172,40.449C253.172,40.613 253.078,40.703 252.938,40.703C252.613,40.703 252.055,40.449 251.242,39.926C251.172,39.926 251.102,39.98 251.063,40.09C251.336,41.117 251.785,42.5 252.414,44.285C253.816,48.297 254.539,51.215 254.539,53.031C254.539,54.867 254.25,56.453 253.711,57.82C252.809,60.125 251.227,61.293 248.992,61.293C246.617,61.293 244.746,60.25 243.379,58.199C242.551,56.957 241.813,55.102 241.164,52.637C240.895,55.121 240.102,57.262 238.805,59.062C237.203,61.223 235.172,62.32 232.688,62.32C229.949,62.32 228.043,61.004 226.945,58.395C226.332,56.937 226.043,55.211 226.043,53.211C226.043,50.602 226.352,48.152 226.961,45.887C227.141,45.273 227.23,44.859 227.23,44.66C227.23,44.555 227.195,44.5 227.141,44.5C227.035,44.5 226.781,44.805 226.387,45.418C225.773,46.371 225.145,48.297 224.461,51.23C223.598,54.992 223.02,57.262 222.75,58.035C222.391,59.117 221.887,59.996 221.238,60.645C220.699,61.187 220.246,61.473 219.852,61.473C218.105,61.473 216.758,60.359 215.801,58.145C215.012,56.289 214.633,54.074 214.633,51.465C214.633,49.629 214.902,47.648 215.461,45.508C215.586,45.023 215.711,44.66 215.84,44.426C216.02,44.141 216.125,44.086 216.199,44.32C216.254,44.57 216.215,45.004 216.109,45.652C215.785,47.273 215.621,48.766 215.621,50.117C215.621,55.406 216.738,58.055 218.953,58.055C219.906,58.055 220.699,57.332 221.328,55.91C221.723,55.031 222.191,53.32 222.75,50.836C223.398,48.062 223.938,46.047 224.387,44.75C224.91,43.293 225.559,41.98 226.313,40.844C227.141,39.566 227.863,38.918 228.473,38.918C228.977,38.918 229.211,39.461 229.211,40.523C229.211,41.387 228.977,43.168 228.473,45.852C227.969,48.531 227.734,50.332 227.734,51.25C227.734,53.246 228.148,54.812 228.977,55.949C229.824,57.062 230.977,57.641 232.453,57.641C235.152,57.641 237.148,56.793 238.5,55.102C239.563,53.77 240.102,52.133 240.102,50.168C240.102,48.297 239.941,46.48 239.617,44.734C239.398,43.508 239.113,42.32 238.734,41.223C238.43,40.25 238.266,39.801 238.266,39.855C238.266,38.777 238.609,37.316 239.309,35.445C239.473,35.051 239.598,34.852 239.688,34.832C239.797,34.852 239.977,35.105 240.227,35.645C241.234,37.715 242.027,40.898 242.605,45.203C243.145,49.215 243.938,52.094 244.945,53.824C245.969,55.551 247.535,56.414 249.625,56.414C251.371,56.414 252.523,55.77 253.078,54.508C253.078,54.074 252.703,53.141 251.965,51.699C251.027,49.863 250.363,48.371 249.984,47.199Z" style="fill:rgb(255,97,6);fill-rule:nonzero;"/>
                    </g>
                    <g transform="matrix(2.12276,0,0,2.12276,-332.106,6.61132)">
                        <path d="M306.523,41.223C308.18,41.223 309.637,42.195 310.949,44.141C312.246,46.082 313.164,48.621 313.688,51.754C313.738,52.078 313.777,52.277 313.777,52.328C313.828,52.418 313.883,52.418 313.902,52.328C313.938,52.277 314.012,52.078 314.137,51.754C314.387,49.883 315.035,47.09 316.063,43.367C317.18,40.703 318.383,39.371 319.699,39.371C320.383,39.371 321.047,39.82 321.73,40.719C322.309,41.512 322.613,42.16 322.613,42.645C322.613,43.043 322.508,43.527 322.289,44.141C322.039,44.969 321.73,45.383 321.371,45.383C321.227,45.383 320.902,45.059 320.418,44.445C319.914,43.816 319.391,43.508 318.871,43.508C317.699,43.508 316.621,46.266 315.629,51.809C315.18,54.219 314.695,55.91 314.172,56.902C313.793,57.586 313.469,57.926 313.199,57.926C312.965,57.926 312.859,57.605 312.859,56.992C312.859,56.039 312.301,54.148 311.184,51.359C310.066,48.551 309.277,47.164 308.809,47.164C308.484,47.164 308.285,47.254 308.195,47.469C308.105,47.668 307.855,47.777 307.402,47.777C306.918,47.777 306.254,47.398 305.461,46.676C304.648,45.941 304.254,45.344 304.254,44.914C304.254,44.699 304.578,44.031 305.262,42.914C305.93,41.781 306.359,41.223 306.523,41.223Z" style="fill:rgb(255,97,6);fill-rule:nonzero;"/>
                    </g>
                </g>
            </g>
        </g>
        <g transform="matrix(4.16667,0,0,4.16667,52.014,930.473)">
            <g transform="matrix(1,0,0,1,-2.27637,-25.5425)">
                <g>
                    <g transform="matrix(2.12276,0,0,2.12276,-332.106,6.61132)">
                        <path d="M344.934,131.258C347.977,130.18 351.289,129.008 354.836,127.75C355.086,127.66 355.23,127.625 355.285,127.66C355.355,127.695 355.34,127.84 355.23,128.055C354.961,128.738 354.727,129.152 354.563,129.297C351.559,130.34 348.086,131.711 344.141,133.418C344.305,132.754 344.574,132.035 344.934,131.258Z" style="fill:rgb(0,170,194);fill-rule:nonzero;"/>
                    </g>
                    <g transform="matrix(2.12276,0,0,2.12276,-332.106,6.61132)">
                        <path d="M360.828,74.703C365.164,73.121 369.773,71.445 374.652,69.664C374.902,69.574 375.047,69.539 375.086,69.574C375.156,69.609 375.137,69.754 375.047,69.969C374.762,70.652 374.543,71.066 374.363,71.211C370.277,72.687 365.488,74.559 360.035,76.828C360.199,76.18 360.469,75.477 360.828,74.703Z" style="fill:rgb(0,170,194);fill-rule:nonzero;"/>
                    </g>
                    <g transform="matrix(2.12276,0,0,2.12276,-332.106,6.61132)">
                        <path d="M331.414,72.363C334.457,71.285 337.77,70.113 341.316,68.855C341.566,68.766 341.711,68.727 341.766,68.766C341.84,68.801 341.82,68.945 341.711,69.16C341.441,69.844 341.207,70.258 341.047,70.402C338.039,71.445 334.566,72.812 330.625,74.523C330.785,73.859 331.055,73.137 331.414,72.363Z" style="fill:rgb(0,170,194);fill-rule:nonzero;"/>
                    </g>
                    <g transform="matrix(2.12276,0,0,2.12276,-332.106,6.61132)">
                        <path d="M306.523,101.812C309.563,100.73 312.875,99.562 316.422,98.301C316.676,98.211 316.816,98.176 316.871,98.211C316.945,98.246 316.926,98.391 316.816,98.609C316.547,99.293 316.313,99.707 316.152,99.852C313.145,100.895 309.672,102.262 305.73,103.973C305.891,103.305 306.16,102.586 306.523,101.812Z" style="fill:rgb(0,170,194);fill-rule:nonzero;"/>
                    </g>
                    <g transform="matrix(2.12276,0,0,2.12276,-332.106,6.61132)">
                        <path d="M300.672,122.816C300.512,123.484 300.328,123.914 300.113,124.113C299.25,124.652 297.379,125.895 294.48,127.875C294.355,127.949 294.211,128.055 294.047,128.184C294.012,128.164 293.992,128.109 293.977,128L294.137,126.992C294.176,126.742 294.66,126.273 295.559,125.57C294.445,125.156 293.887,124.652 293.887,124.043C293.887,123.359 294.176,122.656 294.77,121.937C295.922,120.531 296.891,119.848 297.648,119.848C298.332,119.848 298.676,120.227 298.676,121.02C298.676,121.449 298.492,121.973 298.117,122.582C298.043,122.727 297.953,122.711 297.863,122.512C297.648,122.062 297.359,121.844 297.02,121.844C296.73,121.844 296.406,121.973 296.027,122.242C295.633,122.512 295.453,122.746 295.453,122.945C295.453,123.176 295.688,123.41 296.152,123.664C296.621,123.914 297,124.043 297.27,124.043C297.539,124.043 297.988,123.844 298.637,123.465C299.09,123.16 299.539,122.871 299.988,122.582C300.367,122.387 300.602,122.297 300.672,122.332C300.742,122.367 300.742,122.531 300.672,122.816Z" style="fill:rgb(0,170,194);fill-rule:nonzero;"/>
                    </g>
                    <g transform="matrix(2.12276,0,0,2.12276,-332.106,6.61132)">
                        <path d="M292.445,130.199C295.488,129.117 298.801,127.949 302.348,126.687C302.598,126.598 302.742,126.562 302.797,126.598C302.867,126.633 302.852,126.777 302.742,126.992C302.473,127.676 302.238,128.09 302.074,128.234C299.07,129.281 295.598,130.648 291.652,132.359C291.816,131.691 292.086,130.973 292.445,130.199Z" style="fill:rgb(0,170,194);fill-rule:nonzero;"/>
                    </g>
                    <g transform="matrix(2.12276,0,0,2.12276,-332.106,6.61132)">
                        <path d="M281.09,80.984C281.09,81.598 280.945,82.227 280.676,82.875C280.313,83.723 279.863,84.152 279.289,84.152C278.406,84.152 277.777,83.543 277.398,82.316C276.965,83.867 276.191,84.656 275.074,84.656C274.645,84.656 274.285,84.441 273.961,84.008C273.617,83.523 273.438,82.859 273.438,82.047L273.438,80.121C273.438,79.977 273.328,79.871 273.113,79.797C272.898,79.742 272.809,79.582 272.809,79.312C272.809,78.898 272.988,78.484 273.348,78.07C273.672,77.711 273.926,77.531 274.086,77.531C274.301,77.531 274.43,77.945 274.43,78.789C274.43,79.238 274.391,79.602 274.32,79.887C274.246,80.195 274.211,80.445 274.211,80.66C274.211,81.129 274.301,81.562 274.48,81.977C274.699,82.461 274.984,82.715 275.309,82.715C275.723,82.715 276.121,82.516 276.496,82.137C276.859,81.742 277.055,81.309 277.055,80.789C277.055,80.48 276.965,79.977 276.785,79.258C276.605,78.539 276.535,78.105 276.516,77.926C276.535,77.766 276.605,77.531 276.77,77.187C276.91,76.844 277.039,76.684 277.109,76.684C277.254,76.684 277.434,77.168 277.668,78.125C277.883,79.078 278.012,79.781 278.012,80.23C278.012,81.543 278.516,82.211 279.523,82.211C279.953,82.211 280.242,81.977 280.352,81.543C279.469,80.016 279.035,78.844 279.035,78.035C279.035,77.566 279.145,77.152 279.379,76.793C279.539,76.539 279.648,76.395 279.719,76.395C279.773,76.395 279.828,76.539 279.863,76.863C279.898,77.297 279.973,77.656 280.063,77.926C280.078,77.961 280.297,78.5 280.711,79.547C280.961,80.176 281.09,80.66 281.09,80.984Z" style="fill:rgb(0,170,194);fill-rule:nonzero;"/>
                    </g>
                    <g transform="matrix(2.12276,0,0,2.12276,-332.106,6.61132)">
                        <path d="M270.863,74.453C273.906,73.371 277.219,72.203 280.766,70.941C281.016,70.852 281.16,70.816 281.215,70.852C281.285,70.887 281.27,71.031 281.16,71.246C280.891,71.934 280.656,72.344 280.492,72.488C277.488,73.535 274.016,74.902 270.07,76.613C270.234,75.945 270.504,75.227 270.863,74.453Z" style="fill:rgb(0,170,194);fill-rule:nonzero;"/>
                    </g>
                    <g transform="matrix(2.12276,0,0,2.12276,-332.106,6.61132)">
                        <path d="M237.672,87.844C237.672,88.457 237.527,89.086 237.258,89.734C236.898,90.578 236.449,91.012 235.871,91.012C234.988,91.012 234.359,90.398 233.98,89.176C233.551,90.723 232.777,91.516 231.66,91.516C231.227,91.516 230.867,91.301 230.543,90.867C230.203,90.383 230.023,89.715 230.023,88.906L230.023,86.98C230.023,86.836 229.914,86.727 229.699,86.656C229.48,86.602 229.391,86.441 229.391,86.168C229.391,85.754 229.57,85.34 229.934,84.926C230.258,84.566 230.508,84.387 230.672,84.387C230.887,84.387 231.012,84.801 231.012,85.648C231.012,86.098 230.977,86.457 230.902,86.746C230.832,87.051 230.797,87.305 230.797,87.52C230.797,87.988 230.887,88.418 231.066,88.832C231.281,89.32 231.57,89.57 231.895,89.57C232.309,89.57 232.703,89.375 233.082,88.996C233.441,88.602 233.641,88.168 233.641,87.645C233.641,87.34 233.551,86.836 233.371,86.117C233.191,85.395 233.117,84.965 233.102,84.785C233.117,84.621 233.191,84.387 233.352,84.047C233.496,83.703 233.621,83.543 233.695,83.543C233.84,83.543 234.02,84.027 234.254,84.98C234.469,85.937 234.594,86.637 234.594,87.086C234.594,88.402 235.098,89.066 236.105,89.066C236.539,89.066 236.824,88.832 236.934,88.402C236.051,86.871 235.621,85.703 235.621,84.891C235.621,84.422 235.727,84.008 235.961,83.648C236.125,83.398 236.23,83.254 236.305,83.254C236.359,83.254 236.41,83.398 236.449,83.723C236.484,84.152 236.555,84.516 236.645,84.785C236.664,84.82 236.879,85.359 237.293,86.402C237.547,87.035 237.672,87.52 237.672,87.844Z" style="fill:rgb(0,170,194);fill-rule:nonzero;"/>
                    </g>
                    <g transform="matrix(2.12276,0,0,2.12276,-332.106,6.61132)">
                        <path d="M225.773,81.129C230.113,79.547 234.719,77.871 239.598,76.09C239.852,76 239.992,75.965 240.031,76C240.102,76.035 240.086,76.18 239.992,76.395C239.707,77.078 239.488,77.492 239.309,77.637C235.223,79.113 230.438,80.984 224.98,83.254C225.145,82.605 225.414,81.902 225.773,81.129Z" style="fill:rgb(0,170,194);fill-rule:nonzero;"/>
                    </g>
                    <g transform="matrix(2.12276,0,0,2.12276,-332.106,6.61132)">
                        <path d="M221.527,92.559C221.129,91.676 220.445,91.031 219.473,90.617C219.473,91.48 219.383,92.184 219.188,92.703C219.313,92.738 220.066,92.848 221.438,93.027C221.527,93.047 221.578,93.047 221.598,93.008C221.672,92.957 221.652,92.793 221.527,92.559ZM218.465,92.559C218.594,92.109 218.594,91.625 218.465,91.121C218.32,90.543 218.07,90.273 217.711,90.273C217.512,90.273 217.223,90.453 216.863,90.812C216.504,91.172 216.324,91.445 216.324,91.625C216.324,92.074 217.043,92.379 218.465,92.559ZM216.18,90.059C215.891,89.086 215.965,88.402 216.359,88.004C216.664,87.684 217.043,87.539 217.457,87.539C217.871,87.539 218.34,87.664 218.863,87.953C220.715,88.961 221.941,90.203 222.551,91.66C222.59,91.75 222.625,91.875 222.625,92.02C222.625,92.523 222.461,93.102 222.137,93.766C221.832,94.414 221.527,94.754 221.238,94.738C221.129,94.754 220.266,94.664 218.645,94.484C217.836,95.621 216.828,96.629 215.641,97.508C214.219,98.555 212.902,99.344 211.715,99.887C211.465,100.012 210.098,100.535 207.594,101.453C207.199,101.594 206.945,101.668 206.801,101.668C206.73,101.668 206.711,101.648 206.711,101.613C206.711,101.543 206.93,101.344 207.379,101.055C209.215,99.977 211.031,98.895 212.867,97.816C214.957,96.59 216.574,95.422 217.711,94.324C216.27,94 215.551,93.332 215.551,92.363C215.551,91.551 215.746,90.777 216.18,90.059Z" style="fill:rgb(0,170,194);fill-rule:nonzero;"/>
                    </g>
                    <g transform="matrix(2.12276,0,0,2.12276,-332.106,6.61132)">
                        <path d="M311.203,78.988C312.516,78.988 313.688,79.762 314.73,81.309C315.773,82.875 316.512,84.91 316.926,87.41C316.98,87.664 316.996,87.824 316.996,87.863C317.051,87.934 317.09,87.934 317.105,87.863C317.125,87.824 317.195,87.664 317.285,87.41C317.504,85.918 318.008,83.668 318.836,80.699C319.715,78.574 320.688,77.512 321.75,77.512C322.289,77.512 322.828,77.871 323.352,78.59C323.84,79.223 324.07,79.742 324.07,80.141C324.07,80.445 323.98,80.84 323.82,81.344C323.605,81.992 323.371,82.336 323.082,82.336C322.957,82.336 322.703,82.082 322.309,81.578C321.91,81.074 321.496,80.824 321.086,80.824C320.148,80.824 319.266,83.039 318.473,87.449C318.133,89.375 317.734,90.723 317.32,91.535C317.016,92.074 316.766,92.344 316.547,92.344C316.352,92.344 316.262,92.09 316.262,91.605C316.262,90.832 315.828,89.32 314.93,87.086C314.047,84.855 313.398,83.738 313.039,83.738C312.77,83.738 312.605,83.812 312.535,83.973C312.461,84.137 312.266,84.227 311.902,84.227C311.508,84.227 310.984,83.918 310.34,83.344C309.707,82.75 309.383,82.281 309.383,81.941C309.383,81.777 309.652,81.238 310.176,80.336C310.715,79.437 311.059,78.988 311.203,78.988Z" style="fill:rgb(0,170,194);fill-rule:nonzero;"/>
                    </g>
                    <g transform="matrix(2.12276,0,0,2.12276,-332.106,6.61132)">
                        <path d="M266.633,109.031C267.516,109.031 268.289,109.551 268.992,110.578C269.695,111.621 270.18,112.973 270.449,114.645C270.484,114.824 270.504,114.934 270.504,114.953C270.539,115.004 270.559,115.004 270.574,114.953C270.594,114.934 270.629,114.824 270.684,114.645C270.828,113.656 271.172,112.16 271.727,110.184C272.32,108.758 272.969,108.059 273.672,108.059C274.031,108.059 274.391,108.293 274.754,108.777C275.059,109.191 275.219,109.535 275.219,109.805C275.219,110 275.164,110.273 275.039,110.594C274.914,111.027 274.754,111.262 274.555,111.262C274.48,111.262 274.301,111.082 274.051,110.758C273.781,110.414 273.512,110.254 273.223,110.254C272.594,110.254 272.016,111.73 271.492,114.684C271.262,115.961 270.988,116.859 270.719,117.398C270.504,117.758 270.344,117.941 270.199,117.941C270.07,117.941 270.02,117.758 270.02,117.437C270.02,116.934 269.711,115.922 269.117,114.43C268.523,112.937 268.109,112.199 267.859,112.199C267.68,112.199 267.57,112.25 267.535,112.359C267.48,112.469 267.336,112.523 267.102,112.523C266.852,112.523 266.488,112.324 266.059,111.926C265.645,111.531 265.43,111.227 265.43,110.992C265.43,110.883 265.609,110.523 265.969,109.93C266.328,109.316 266.543,109.031 266.633,109.031Z" style="fill:rgb(0,170,194);fill-rule:nonzero;"/>
                    </g>
                    <g transform="matrix(2.12276,0,0,2.12276,-332.106,6.61132)">
                        <path d="M357.75,106.762C358.633,106.762 359.406,107.285 360.109,108.309C360.809,109.355 361.297,110.703 361.566,112.379C361.602,112.559 361.621,112.664 361.621,112.684C361.656,112.738 361.676,112.738 361.691,112.684C361.711,112.664 361.746,112.559 361.801,112.379C361.945,111.387 362.285,109.895 362.844,107.914C363.438,106.492 364.086,105.789 364.789,105.789C365.148,105.789 365.508,106.023 365.867,106.508C366.176,106.922 366.336,107.266 366.336,107.535C366.336,107.734 366.281,108.004 366.156,108.328C366.031,108.758 365.867,108.992 365.672,108.992C365.598,108.992 365.418,108.812 365.164,108.488C364.895,108.148 364.625,107.984 364.34,107.984C363.707,107.984 363.133,109.461 362.609,112.414C362.375,113.691 362.105,114.59 361.836,115.133C361.621,115.492 361.457,115.672 361.313,115.672C361.188,115.672 361.133,115.492 361.133,115.168C361.133,114.664 360.828,113.656 360.234,112.16C359.641,110.668 359.227,109.93 358.973,109.93C358.793,109.93 358.688,109.984 358.648,110.09C358.598,110.199 358.453,110.254 358.219,110.254C357.965,110.254 357.605,110.055 357.176,109.66C356.762,109.266 356.543,108.957 356.543,108.723C356.543,108.617 356.723,108.254 357.086,107.66C357.445,107.051 357.66,106.762 357.75,106.762Z" style="fill:rgb(0,170,194);fill-rule:nonzero;"/>
                    </g>
                    <g transform="matrix(2.12276,0,0,2.12276,-332.106,6.61132)">
                        <path d="M330.805,98.32C330.859,98.211 330.895,98.141 330.949,98.121C330.965,98.086 331.004,98.086 331.02,98.141C331.039,98.176 331.039,98.266 331.02,98.375C330.91,99.254 330.641,100.066 330.246,100.77C329.852,101.469 329.418,101.828 328.949,101.828C328.445,101.828 328.051,101.578 327.781,101.02C327.512,100.48 327.402,99.742 327.438,98.824C327.473,97.691 327.816,96.25 328.465,94.484C329.004,92.973 329.488,91.93 329.902,91.316C330.176,90.957 330.336,90.758 330.391,90.758C330.391,90.812 330.316,91.031 330.176,91.391C329.238,93.477 328.645,95.402 328.41,97.187C328.375,97.383 328.375,97.582 328.375,97.781C328.375,99.203 328.715,99.867 329.418,99.812C329.852,99.758 330.301,99.273 330.805,98.32Z" style="fill:rgb(0,170,194);fill-rule:nonzero;"/>
                    </g>
                    <g transform="matrix(2.12276,0,0,2.12276,-332.106,6.61132)">
                        <path d="M359.102,93.062C359.102,93.875 358.758,94.773 358.109,95.801C357.445,96.863 356.563,97.762 355.5,98.52C355.086,98.805 354.836,98.969 354.762,98.969C354.742,98.969 354.742,98.949 354.742,98.934C354.742,98.879 354.926,98.645 355.266,98.266C357.031,96.359 357.91,95.078 357.91,94.434C357.91,93.836 357.625,93.531 357.066,93.531C356.742,93.531 356.473,93.605 356.219,93.785C356.023,93.91 355.914,93.98 355.859,93.98C355.824,93.965 355.789,93.926 355.734,93.926C355.754,93.855 355.789,93.695 355.844,93.422C356.113,92.109 356.777,91.461 357.805,91.461C358.668,91.461 359.102,92 359.102,93.062Z" style="fill:rgb(0,170,194);fill-rule:nonzero;"/>
                    </g>
                    <g transform="matrix(2.12276,0,0,2.12276,-332.106,6.61132)">
                        <path d="M268.414,98.176C268.414,98.984 268.074,99.887 267.426,100.91C266.762,101.973 265.879,102.875 264.816,103.629C264.402,103.918 264.148,104.078 264.078,104.078C264.059,104.078 264.059,104.062 264.059,104.043C264.059,103.988 264.238,103.754 264.582,103.379C266.348,101.469 267.227,100.191 267.227,99.543C267.227,98.949 266.941,98.645 266.383,98.645C266.059,98.645 265.789,98.715 265.535,98.895C265.34,99.023 265.23,99.094 265.176,99.094C265.141,99.074 265.105,99.039 265.051,99.039C265.066,98.969 265.105,98.805 265.156,98.535C265.43,97.223 266.094,96.574 267.121,96.574C267.984,96.574 268.414,97.113 268.414,98.176Z" style="fill:rgb(0,170,194);fill-rule:nonzero;"/>
                    </g>
                    <g transform="matrix(2.12276,0,0,2.12276,-332.106,6.61132)">
                        <path d="M379.871,79.348C379.871,78.719 379.711,77.98 379.422,77.133C379.133,76.289 378.973,75.82 378.973,75.73C378.973,75.586 379.133,74.957 379.441,73.875C379.766,72.797 379.945,72.203 380.016,72.074C380.141,71.789 380.25,71.66 380.34,71.66C380.395,71.66 380.504,71.789 380.664,72.023C381.043,72.652 381.727,74.02 382.734,76.109C383.797,78.395 384.426,79.906 384.641,80.645C384.805,81.148 384.875,81.488 384.875,81.687C384.875,82.336 384.211,81.922 382.879,80.41C382.715,80.266 382.645,80.375 382.645,80.734C382.645,81.578 382.984,84.836 383.672,90.473C384.355,96.125 384.695,100.211 384.695,102.785C384.695,107.914 383.508,112.16 381.133,115.527C379.262,118.156 377.137,120.027 374.762,121.109C373.789,121.559 372.168,122.062 369.883,122.656C367.613,123.25 365.941,123.59 364.879,123.699C364.43,123.719 364.211,123.699 364.211,123.59C364.211,123.465 364.43,123.27 364.879,122.98C366.93,121.809 370.332,119.777 375.031,116.895C376.508,115.922 378,114.629 379.531,113.008C381.563,110.812 382.59,108.977 382.59,107.465C382.59,105.34 382.121,100.316 381.223,92.398C380.32,84.477 379.871,80.121 379.871,79.348ZM357.516,81.023C357.137,80.426 356.742,80.016 356.293,79.762C356.039,79.602 355.934,79.348 355.934,79.004L355.934,75.91C355.934,75.297 356.039,74.973 356.258,74.973C356.398,74.973 356.688,75.117 357.102,75.406L363.043,79.941C363.492,80.32 363.707,80.59 363.707,80.734C363.707,80.895 363.527,80.984 363.188,80.969C362.684,80.984 361.855,80.84 360.703,80.555C360.863,80.805 361.098,81.094 361.402,81.453C362.594,82.785 364.32,84.586 366.551,86.836C368.371,88.617 370.188,90.398 371.988,92.184C377.531,97.781 380.285,102.586 380.285,106.617C380.285,106.961 380.27,107.32 380.25,107.699C379.906,110.543 379.656,111.965 379.492,111.965C379.367,111.965 379.133,110.793 378.793,108.453C378.234,104.637 375.391,100.281 370.262,95.367C365.543,90.867 362.305,87.52 360.559,85.34C359.695,84.297 359.047,83.453 358.648,82.75C358.273,82.191 357.895,81.617 357.516,81.023Z" style="fill:rgb(0,170,194);fill-rule:nonzero;"/>
                    </g>
                    <g transform="matrix(2.12276,0,0,2.12276,-332.106,6.61132)">
                        <path d="M346.41,83.578C346.41,82.082 346.176,80.84 345.707,79.887C345.707,79.328 346.141,78.035 347.004,75.98C347.129,75.746 347.219,75.621 347.309,75.621C347.398,75.621 347.488,75.746 347.617,76.02C347.867,76.559 348.445,78.035 349.363,80.41C350.316,82.91 350.855,84.461 351.02,85.035C351.145,85.469 351.215,85.793 351.215,86.008C351.215,86.711 350.551,86.297 349.219,84.746C349.055,84.566 348.984,84.656 348.984,85.055C348.984,85.199 349.254,88.996 349.793,96.449C350.336,103.898 350.621,108.219 350.621,109.406C350.621,113.043 350.063,116.246 348.949,119.02C348.715,119.578 348.535,119.992 348.391,120.262C348.176,120.621 348.047,120.656 347.992,120.406C347.941,120.137 347.957,119.543 348.066,118.641C348.211,117.398 348.281,115.922 348.281,114.25C348.281,112.754 347.957,107.59 347.348,98.77C346.715,89.949 346.41,84.875 346.41,83.578Z" style="fill:rgb(0,170,194);fill-rule:nonzero;"/>
                    </g>
                    <g transform="matrix(2.12276,0,0,2.12276,-332.106,6.61132)">
                        <path d="M342.055,105.789C342.055,110.324 341.227,113.891 339.605,116.48C338.238,118.676 336.617,119.777 334.746,119.777L334.746,115.078C336.238,115.078 337.699,114.5 339.102,113.352C339.496,113.008 339.715,111.746 339.715,109.586C339.715,108.219 339.445,103.844 338.922,96.484C338.383,89.121 338.129,84.785 338.129,83.469C338.129,81.977 337.879,80.734 337.41,79.781C337.41,79.203 337.844,77.906 338.723,75.875C338.813,75.641 338.902,75.516 338.992,75.516C339.102,75.516 339.211,75.641 339.336,75.875C339.59,76.449 340.164,77.906 341.063,80.285C342,82.785 342.559,84.332 342.758,84.926C342.848,85.379 342.898,85.703 342.898,85.918C342.898,86.602 342.234,86.187 340.922,84.656C340.777,84.441 340.703,84.531 340.703,84.926C340.703,85.035 340.922,88.133 341.371,94.27C341.82,100.391 342.055,104.242 342.055,105.789Z" style="fill:rgb(0,170,194);fill-rule:nonzero;"/>
                    </g>
                    <g transform="matrix(2.12276,0,0,2.12276,-332.106,6.61132)">
                        <path d="M334.691,119.777C333.109,119.777 331.973,119.668 331.273,119.488C329.777,119.055 328.535,118.066 327.527,116.535C326.898,115.508 326.285,114.465 325.656,113.387C325.098,112.523 324.539,112.09 323.965,112.09C322.219,112.09 320.383,113.566 318.438,116.535C318.098,117.074 317.484,118.445 316.586,120.676C315.703,122.926 314.93,124.527 314.262,125.535C313.234,127.066 312.137,127.84 310.984,127.84C309.277,127.84 307.816,126.488 306.629,123.809C305.566,121.434 305.047,118.965 305.047,116.391C305.047,113.312 305.352,110.848 305.98,108.992C306.16,108.344 306.344,108.023 306.484,108.023C306.684,108.023 306.719,108.418 306.629,109.227C306.379,111.207 306.27,112.863 306.27,114.25C306.27,120.766 307.781,124.043 310.805,124.043C312.031,124.043 313.145,123.086 314.172,121.18C315.215,118.895 316.262,116.609 317.32,114.34C318.258,112.469 319.41,110.848 320.762,109.516C322.129,108.164 323.371,107.5 324.484,107.5C325.332,107.5 326.105,108.023 326.824,109.082C327.422,110.055 328.016,111.027 328.609,111.98C329.453,113.168 330.316,113.996 331.219,114.43C332.102,114.863 333.27,115.078 334.691,115.078L334.691,119.777Z" style="fill:rgb(0,170,194);fill-rule:nonzero;"/>
                    </g>
                    <g transform="matrix(2.12276,0,0,2.12276,-332.106,6.61132)">
                        <path d="M296.441,82.93C296.441,81.437 296.207,80.195 295.738,79.238C295.738,78.684 296.172,77.387 297.035,75.332C297.16,75.102 297.254,74.973 297.344,74.973C297.434,74.973 297.523,75.102 297.648,75.371C297.898,75.91 298.477,77.387 299.395,79.762C300.348,82.266 300.887,83.812 301.051,84.387C301.176,84.82 301.246,85.145 301.246,85.359C301.246,86.062 300.582,85.648 299.25,84.102C299.09,83.918 299.016,84.008 299.016,84.406C299.016,84.551 299.285,88.348 299.824,95.801C300.367,103.25 300.652,107.57 300.652,108.758C300.652,112.395 300.098,115.602 298.98,118.371C298.746,118.93 298.566,119.344 298.422,119.613C298.207,119.973 298.078,120.008 298.027,119.758C297.973,119.488 297.988,118.895 298.098,117.992C298.242,116.75 298.313,115.277 298.313,113.602C298.313,112.109 297.988,106.941 297.379,98.121C296.746,89.301 296.441,84.227 296.441,82.93Z" style="fill:rgb(0,170,194);fill-rule:nonzero;"/>
                    </g>
                    <g transform="matrix(2.12276,0,0,2.12276,-332.106,6.61132)">
                        <path d="M287.785,82.84C287.785,82.211 287.621,81.473 287.336,80.625C287.047,79.781 286.883,79.312 286.883,79.223C286.883,79.078 287.047,78.449 287.352,77.367C287.676,76.289 287.855,75.695 287.93,75.566C288.055,75.281 288.16,75.152 288.254,75.152C288.305,75.152 288.414,75.281 288.574,75.516C288.953,76.145 289.637,77.512 290.645,79.602C291.707,81.887 292.34,83.398 292.555,84.137C292.715,84.641 292.789,84.98 292.789,85.18C292.789,85.828 292.121,85.414 290.789,83.902C290.629,83.758 290.555,83.867 290.555,84.227C290.555,85.07 290.898,88.328 291.582,93.965C292.266,99.617 292.609,103.703 292.609,106.277C292.609,111.406 291.422,115.652 289.043,119.02C287.172,121.648 285.047,123.52 282.672,124.602C281.699,125.051 280.078,125.555 277.793,126.148C275.527,126.742 273.852,127.082 272.789,127.191C272.34,127.211 272.125,127.191 272.125,127.082C272.125,126.957 272.34,126.758 272.789,126.473C274.844,125.301 278.242,123.27 282.941,120.387C284.418,119.414 285.91,118.121 287.441,116.5C289.477,114.305 290.504,112.469 290.504,110.957C290.504,108.832 290.035,103.809 289.133,95.891C288.234,87.969 287.785,83.613 287.785,82.84ZM265.43,84.516C265.051,83.918 264.652,83.504 264.203,83.254C263.953,83.09 263.844,82.84 263.844,82.496L263.844,79.402C263.844,78.789 263.953,78.465 264.168,78.465C264.313,78.465 264.602,78.609 265.016,78.898L270.953,83.434C271.402,83.812 271.621,84.082 271.621,84.227C271.621,84.387 271.441,84.477 271.098,84.461C270.594,84.477 269.766,84.332 268.613,84.047C268.777,84.297 269.012,84.586 269.316,84.945C270.504,86.277 272.23,88.078 274.465,90.328C276.281,92.109 278.102,93.891 279.898,95.672C285.445,101.273 288.199,106.078 288.199,110.109C288.199,110.453 288.18,110.812 288.16,111.191C287.82,114.035 287.566,115.457 287.406,115.457C287.281,115.457 287.047,114.285 286.703,111.945C286.145,108.129 283.301,103.773 278.172,98.859C273.457,94.359 270.215,91.012 268.469,88.832C267.605,87.789 266.957,86.945 266.563,86.242C266.184,85.684 265.805,85.109 265.43,84.516Z" style="fill:rgb(0,170,194);fill-rule:nonzero;"/>
                    </g>
                    <g transform="matrix(2.12276,0,0,2.12276,-332.106,6.61132)">
                        <path d="M255.113,83.848C255.113,82.355 254.879,81.113 254.41,80.156C254.41,79.602 254.844,78.305 255.707,76.25C255.836,76.02 255.926,75.891 256.015,75.891C256.105,75.891 256.195,76.02 256.32,76.289C256.57,76.828 257.148,78.305 258.066,80.68C259.019,83.184 259.558,84.73 259.722,85.305C259.847,85.738 259.922,86.062 259.922,86.277C259.922,86.98 259.254,86.566 257.922,85.02C257.762,84.836 257.687,84.926 257.687,85.324C257.687,85.469 257.957,89.266 258.496,96.719C259.039,104.168 259.324,108.488 259.324,109.676C259.324,113.312 258.769,116.52 257.652,119.289C257.418,119.848 257.238,120.262 257.094,120.531C256.879,120.891 256.754,120.926 256.699,120.676C256.644,120.406 256.66,119.812 256.769,118.91C256.914,117.668 256.984,116.195 256.984,114.52C256.984,113.027 256.66,107.859 256.051,99.039C255.422,90.219 255.113,85.145 255.113,83.848Z" style="fill:rgb(0,170,194);fill-rule:nonzero;"/>
                    </g>
                    <g transform="matrix(2.12276,0,0,2.12276,-332.106,6.61132)">
                        <path d="M247.066,105.016C246.258,102.605 245.719,100.355 245.449,98.266C245.34,97.457 245.25,96.953 245.215,96.754C245.105,96.32 244.891,95.891 244.586,95.477C244.801,94.754 245.141,93.746 245.609,92.453C245.773,92.074 245.914,91.895 246.023,91.895C246.148,91.895 246.328,92.074 246.617,92.453C247.859,94.16 248.887,95.711 249.73,97.059C250.074,97.637 250.254,98.031 250.254,98.266C250.254,98.426 250.164,98.52 250.02,98.52C249.695,98.52 249.137,98.266 248.328,97.742C248.258,97.742 248.184,97.797 248.148,97.906C248.418,98.934 248.867,100.316 249.496,102.102C250.902,106.113 251.621,109.031 251.621,110.848C251.621,112.684 251.336,114.27 250.793,115.637C249.895,117.941 248.309,119.109 246.078,119.109C243.703,119.109 241.828,118.066 240.461,116.016C239.633,114.773 238.895,112.918 238.246,110.453C237.977,112.937 237.188,115.078 235.891,116.879C234.289,119.039 232.254,120.137 229.77,120.137C227.035,120.137 225.125,118.82 224.027,116.211C223.414,114.754 223.129,113.027 223.129,111.027C223.129,108.418 223.434,105.969 224.047,103.703C224.227,103.09 224.316,102.676 224.316,102.477C224.316,102.371 224.281,102.316 224.227,102.316C224.117,102.316 223.867,102.621 223.469,103.234C222.859,104.187 222.227,106.113 221.543,109.047C220.68,112.809 220.105,115.078 219.836,115.852C219.473,116.934 218.969,117.812 218.32,118.461C217.781,119 217.332,119.289 216.938,119.289C215.191,119.289 213.84,118.172 212.887,115.961C212.094,114.105 211.715,111.891 211.715,109.281C211.715,107.445 211.984,105.465 212.543,103.324C212.672,102.836 212.797,102.477 212.922,102.242C213.102,101.957 213.211,101.902 213.281,102.137C213.336,102.387 213.301,102.82 213.191,103.469C212.867,105.086 212.707,106.582 212.707,107.934C212.707,113.223 213.82,115.871 216.035,115.871C216.988,115.871 217.781,115.148 218.41,113.727C218.809,112.844 219.277,111.137 219.836,108.652C220.48,105.879 221.023,103.863 221.473,102.566C221.992,101.109 222.641,99.797 223.398,98.66C224.227,97.383 224.945,96.734 225.559,96.734C226.063,96.734 226.297,97.277 226.297,98.336C226.297,99.203 226.063,100.984 225.559,103.664C225.055,106.348 224.82,108.148 224.82,109.066C224.82,111.062 225.234,112.629 226.063,113.766C226.906,114.879 228.059,115.457 229.535,115.457C232.234,115.457 234.234,114.609 235.586,112.918C236.645,111.586 237.188,109.949 237.188,107.984C237.188,106.113 237.023,104.297 236.699,102.551C236.484,101.324 236.195,100.137 235.816,99.039C235.512,98.066 235.352,97.617 235.352,97.672C235.352,96.59 235.691,95.133 236.395,93.262C236.555,92.867 236.684,92.668 236.773,92.648C236.879,92.668 237.059,92.918 237.313,93.461C238.32,95.531 239.113,98.715 239.688,103.02C240.227,107.031 241.02,109.91 242.027,111.641C243.055,113.367 244.621,114.23 246.707,114.23C248.453,114.23 249.605,113.582 250.164,112.324C250.164,111.891 249.785,110.957 249.047,109.516C248.113,107.68 247.445,106.187 247.066,105.016Z" style="fill:rgb(0,170,194);fill-rule:nonzero;"/>
                    </g>
                    <g transform="matrix(2.12276,0,0,2.12276,-332.106,6.61132)">
                        <path d="M351.594,124.742C351.434,125.41 351.254,125.84 351.035,126.039C350.172,126.578 348.301,127.82 345.402,129.801C345.277,129.875 345.133,129.98 344.969,130.109C344.934,130.09 344.914,130.035 344.898,129.926L345.059,128.918C345.098,128.668 345.582,128.199 346.48,127.496C345.367,127.082 344.809,126.578 344.809,125.969C344.809,125.285 345.098,124.582 345.691,123.863C346.844,122.457 347.813,121.773 348.57,121.773C349.254,121.773 349.598,122.152 349.598,122.945C349.598,123.375 349.414,123.898 349.039,124.508C348.965,124.652 348.875,124.637 348.785,124.437C348.57,123.988 348.281,123.773 347.941,123.773C347.652,123.773 347.328,123.898 346.949,124.168C346.555,124.437 346.375,124.672 346.375,124.871C346.375,125.105 346.609,125.336 347.074,125.59C347.543,125.84 347.922,125.969 348.191,125.969C348.461,125.969 348.91,125.77 349.559,125.391C350.012,125.086 350.461,124.797 350.91,124.508C351.289,124.312 351.523,124.223 351.594,124.258C351.664,124.293 351.664,124.457 351.594,124.742Z" style="fill:rgb(0,170,194);fill-rule:nonzero;"/>
                    </g>
                </g>
            </g>
        </g>
        <g transform="matrix(4.16667,0,0,4.16667,52.014,930.473)">
            <g transform="matrix(1,0,0,1,-6.90294,-22.1212)">
                <g>
                    <g transform="matrix(2.12276,0,0,2.12276,-332.106,6.61132)">
                        <path d="M225.848,178.906C225.898,178.797 225.938,178.727 225.988,178.707C226.008,178.672 226.043,178.672 226.063,178.727C226.078,178.762 226.078,178.852 226.063,178.961C225.953,179.84 225.684,180.652 225.289,181.355C224.891,182.055 224.461,182.414 223.992,182.414C223.488,182.414 223.094,182.164 222.82,181.605C222.551,181.066 222.445,180.328 222.48,179.41C222.516,178.277 222.859,176.836 223.508,175.07C224.047,173.559 224.531,172.516 224.945,171.902C225.215,171.543 225.379,171.344 225.434,171.344C225.434,171.398 225.359,171.617 225.215,171.977C224.281,174.062 223.688,175.988 223.453,177.773C223.414,177.969 223.414,178.168 223.414,178.367C223.414,179.789 223.758,180.453 224.461,180.398C224.891,180.344 225.344,179.859 225.848,178.906Z" style="fill:rgb(225,5,2);fill-rule:nonzero;"/>
                    </g>
                    <g transform="matrix(2.12276,0,0,2.12276,-332.106,6.61132)">
                        <path d="M296.227,142.223C296.676,142.473 296.891,142.781 296.891,143.121C296.891,143.355 296.785,143.57 296.566,143.805C295.938,144.418 295.559,144.687 295.398,144.617C295.414,144.398 295.199,144.039 294.77,143.555C294.461,143.391 293.672,143.336 292.355,143.426C290.969,143.5 289.836,143.699 288.973,144.039C288.703,144.148 288.559,144.273 288.559,144.398C288.559,144.652 289.027,145.047 289.945,145.57C290.645,145.984 291.547,146.379 292.66,146.793C293.762,147.191 294.445,147.461 294.695,147.586C296.063,148.395 296.695,149.297 296.586,150.34C296.531,150.953 296.137,151.582 295.398,152.211C294.75,152.77 294.281,153.023 294.031,152.969C290.051,152.016 287.262,151.059 285.641,150.125C284.309,149.352 283.645,148.234 283.645,146.793C283.645,146.523 283.66,146.289 283.734,146.055C284.113,146.777 285.031,147.531 286.469,148.359C287.082,148.719 288.629,149.332 291.113,150.195C293.309,150.969 294.68,151.402 295.219,151.527C295.398,150.789 294.695,149.961 293.129,149.043C292.031,148.664 290.539,148.02 288.629,147.152C287.387,146.434 286.777,145.785 286.777,145.227C286.777,144.777 287.191,144.293 288.02,143.75C289.98,142.492 292.031,141.863 294.176,141.863C295.094,141.863 295.777,141.988 296.227,142.223Z" style="fill:rgb(225,5,2);fill-rule:nonzero;"/>
                    </g>
                    <g transform="matrix(2.12276,0,0,2.12276,-332.106,6.61132)">
                        <path d="M378.109,144.902C378.109,143.41 377.875,142.168 377.406,141.215C377.406,140.656 377.84,139.359 378.703,137.309C378.828,137.074 378.918,136.949 379.008,136.949C379.098,136.949 379.188,137.074 379.313,137.344C379.566,137.883 380.141,139.359 381.059,141.734C382.016,144.238 382.555,145.785 382.715,146.363C382.844,146.793 382.914,147.117 382.914,147.332C382.914,148.035 382.246,147.621 380.914,146.074C380.754,145.895 380.684,145.984 380.684,146.379C380.684,146.523 380.953,150.32 381.492,157.773C382.031,165.227 382.32,169.547 382.32,170.734C382.32,174.371 381.762,177.574 380.645,180.344C380.41,180.902 380.23,181.316 380.09,181.586C379.871,181.949 379.746,181.984 379.691,181.73C379.637,181.461 379.656,180.867 379.766,179.969C379.906,178.727 379.98,177.25 379.98,175.574C379.98,174.082 379.656,168.914 379.043,160.094C378.414,151.277 378.109,146.199 378.109,144.902Z" style="fill:rgb(225,5,2);fill-rule:nonzero;"/>
                    </g>
                    <g transform="matrix(2.12276,0,0,2.12276,-332.106,6.61132)">
                        <path d="M371.574,164.957C370.766,162.543 370.223,160.293 369.953,158.207C369.848,157.395 369.758,156.891 369.719,156.695C369.613,156.262 369.395,155.828 369.09,155.414C369.305,154.695 369.648,153.687 370.117,152.391C370.277,152.016 370.422,151.832 370.531,151.832C370.656,151.832 370.836,152.016 371.125,152.391C372.367,154.102 373.391,155.648 374.238,157C374.578,157.574 374.762,157.973 374.762,158.207C374.762,158.367 374.672,158.457 374.527,158.457C374.203,158.457 373.645,158.207 372.836,157.684C372.762,157.684 372.691,157.738 372.652,157.844C372.926,158.871 373.375,160.258 374.004,162.039C375.406,166.055 376.129,168.969 376.129,170.789C376.129,172.625 375.84,174.207 375.301,175.574C374.398,177.879 372.816,179.051 370.586,179.051C368.207,179.051 366.336,178.004 364.969,175.953C364.141,174.711 363.402,172.859 362.754,170.391C362.484,172.875 361.691,175.02 360.395,176.816C358.793,178.977 356.762,180.074 354.277,180.074C351.539,180.074 349.633,178.762 348.535,176.152C347.922,174.695 347.633,172.965 347.633,170.969C347.633,168.359 347.941,165.91 348.551,163.641C348.73,163.031 348.82,162.617 348.82,162.418C348.82,162.309 348.785,162.254 348.73,162.254C348.625,162.254 348.371,162.562 347.977,163.172C347.363,164.129 346.734,166.055 346.051,168.988C345.188,172.75 344.609,175.02 344.34,175.793C343.98,176.871 343.477,177.754 342.828,178.402C342.289,178.941 341.84,179.23 341.441,179.23C339.695,179.23 338.348,178.113 337.391,175.898C336.602,174.047 336.223,171.832 336.223,169.223C336.223,167.387 336.492,165.406 337.051,163.266C337.176,162.777 337.301,162.418 337.43,162.184C337.609,161.895 337.715,161.84 337.789,162.074C337.844,162.328 337.805,162.758 337.699,163.406C337.375,165.027 337.211,166.523 337.211,167.871C337.211,173.164 338.328,175.809 340.543,175.809C341.496,175.809 342.289,175.09 342.918,173.668C343.313,172.785 343.781,171.074 344.34,168.59C344.988,165.82 345.527,163.805 345.977,162.508C346.5,161.051 347.148,159.734 347.902,158.602C348.73,157.324 349.453,156.676 350.063,156.676C350.566,156.676 350.801,157.215 350.801,158.277C350.801,159.141 350.566,160.922 350.063,163.605C349.559,166.289 349.324,168.086 349.324,169.004C349.324,171.004 349.738,172.57 350.566,173.703C351.414,174.82 352.566,175.395 354.043,175.395C356.742,175.395 358.738,174.551 360.09,172.859C361.152,171.527 361.691,169.887 361.691,167.926C361.691,166.055 361.531,164.234 361.207,162.488C360.988,161.266 360.703,160.078 360.324,158.98C360.02,158.008 359.855,157.559 359.855,157.613C359.855,156.531 360.199,155.074 360.898,153.203C361.063,152.805 361.188,152.609 361.277,152.59C361.387,152.609 361.566,152.859 361.816,153.398C362.824,155.469 363.617,158.656 364.195,162.957C364.734,166.973 365.527,169.852 366.535,171.578C367.559,173.309 369.125,174.172 371.215,174.172C372.961,174.172 374.113,173.523 374.672,172.266C374.672,171.832 374.293,170.895 373.555,169.457C372.617,167.621 371.953,166.125 371.574,164.957Z" style="fill:rgb(225,5,2);fill-rule:nonzero;"/>
                    </g>
                    <g transform="matrix(2.12276,0,0,2.12276,-332.106,6.61132)">
                        <path d="M324.848,145.625C324.848,144.129 324.613,142.887 324.145,141.934C324.145,141.375 324.574,140.078 325.441,138.027C325.566,137.793 325.656,137.668 325.746,137.668C325.836,137.668 325.926,137.793 326.051,138.062C326.305,138.605 326.879,140.078 327.797,142.457C328.754,144.957 329.293,146.504 329.453,147.082C329.578,147.516 329.652,147.836 329.652,148.055C329.652,148.754 328.984,148.34 327.652,146.793C327.492,146.613 327.422,146.703 327.422,147.102C327.422,147.242 327.691,151.043 328.23,158.492C328.77,165.945 329.059,170.266 329.059,171.453C329.059,175.09 328.5,178.293 327.383,181.066C327.148,181.625 326.969,182.039 326.824,182.309C326.609,182.668 326.484,182.703 326.43,182.453C326.375,182.184 326.395,181.586 326.504,180.687C326.645,179.445 326.719,177.969 326.719,176.297C326.719,174.801 326.395,169.637 325.781,160.816C325.152,151.996 324.848,146.918 324.848,145.625Z" style="fill:rgb(225,5,2);fill-rule:nonzero;"/>
                    </g>
                    <g transform="matrix(2.12276,0,0,2.12276,-332.106,6.61132)">
                        <path d="M279.973,139.449C281.734,139.449 282.617,140.117 282.617,141.43C282.617,141.684 282.582,141.934 282.512,142.187C282.348,142.762 282.113,143.41 281.789,144.129C281.41,144.922 281.141,145.336 280.98,145.336C280.891,145.336 280.637,145.082 280.242,144.617C279.828,144.129 279.27,143.895 278.551,143.895C277.648,143.895 276.066,144.453 273.797,145.605C271.566,146.703 269.566,147.91 267.785,149.207C264.727,151.457 262.117,153.633 259.972,155.738C258.301,157.395 257.453,158.367 257.453,158.672C257.453,159.305 258.281,159.844 259.937,160.312C261.883,160.852 264.547,161.121 267.91,161.121C271.871,161.121 278.945,160.527 289.133,159.34C299.34,158.152 305.82,157.574 308.594,157.574C312.191,157.574 315.305,158.297 317.914,159.773C320.887,161.426 322.363,163.676 322.363,166.504C322.363,167.152 322.164,167.945 321.77,168.898C321.371,169.871 320.941,170.609 320.488,171.148C320.309,171.309 320.004,171.418 319.555,171.473C318.422,171.578 309.078,172.82 291.582,175.199C276.895,177.176 267.66,178.187 263.879,178.187C256.894,178.187 252.125,177.645 249.551,176.602L249.551,171.922C251.711,172.965 257.039,173.504 265.52,173.504C269.426,173.504 278.352,172.57 292.301,170.734C307.621,168.719 316.637,167.621 319.355,167.422C319.734,167.387 319.805,167.187 319.555,166.809C318.438,165.137 317.09,163.965 315.469,163.266C313.668,162.508 311.074,162.129 307.727,162.129C305.641,162.129 298.781,162.723 287.137,163.93C275.488,165.137 269.082,165.746 267.91,165.746C263.484,165.746 260.371,165.496 258.605,164.992C256.445,164.398 255.383,163.266 255.383,161.57C255.383,159.41 256.355,156.926 258.316,154.082C260.281,151.258 263.754,148.125 268.758,144.687C273.871,141.195 277.598,139.449 279.973,139.449Z" style="fill:rgb(225,5,2);fill-rule:nonzero;"/>
                    </g>
                    <g transform="matrix(2.12276,0,0,2.12276,-332.106,6.61132)">
                        <path d="M249.535,171.922L249.535,176.621C245.898,175.09 244.098,172.77 244.098,169.652L244.098,168.898C242.082,170.336 240.445,171.309 239.184,171.867L239.184,167.637C240.77,166.973 242.656,165.91 244.855,164.453C245.18,164.234 245.43,164.129 245.594,164.129C245.809,164.129 245.914,164.289 245.914,164.633C245.914,164.793 245.898,165.082 245.824,165.531C245.754,165.965 245.734,166.289 245.734,166.484C245.734,168.863 246.996,170.68 249.535,171.922Z" style="fill:rgb(225,5,2);fill-rule:nonzero;"/>
                    </g>
                    <g transform="matrix(2.12276,0,0,2.12276,-332.106,6.61132)">
                        <path d="M213.031,185.691C213.031,182.414 213.715,179.066 215.082,175.648C215.387,174.926 215.621,174.566 215.746,174.566C215.801,174.605 215.84,174.676 215.84,174.801C215.84,175.035 215.766,175.395 215.641,175.883C214.668,179.266 214.199,181.805 214.199,183.531C214.199,185.062 214.668,186.52 215.641,187.887C216.793,189.508 218.305,190.336 220.141,190.336C222.461,190.336 225.289,189.453 228.617,187.707C231.211,186.395 233.785,184.738 236.305,182.723C238.555,180.977 239.688,179.934 239.688,179.59C239.688,179.285 239.258,178.383 238.375,176.906C237.816,175.973 237.258,175.02 236.699,174.047C236.484,173.613 236.375,173.289 236.375,173.074C236.375,172.137 236.555,171.184 236.934,170.211C237.457,168.898 238.211,168.035 239.184,167.637L239.184,171.852C239.184,171.941 239.598,172.77 240.445,174.332C241.273,175.898 241.703,176.98 241.703,177.574C241.703,178.348 241.543,179.301 241.234,180.383C240.895,181.73 240.426,182.738 239.832,183.387C238.051,185.457 235.422,187.672 231.949,190.047C227.305,193.27 223.414,194.891 220.285,194.891C217.602,194.891 215.621,193.703 214.324,191.324C213.461,189.652 213.031,187.781 213.031,185.691Z" style="fill:rgb(225,5,2);fill-rule:nonzero;"/>
                    </g>
                    <g transform="matrix(2.12276,0,0,2.12276,-332.106,6.61132)">
                        <path d="M248.617,184.035C248.563,183.98 248.563,183.891 248.617,183.746L250.109,180.668C250.199,180.488 250.309,180.398 250.414,180.398C250.559,180.398 251.242,180.797 252.434,181.605C253.621,182.434 254.215,182.902 254.215,183.047C254.215,183.586 253.691,184.684 252.629,186.375C252.504,186.609 252.379,186.664 252.234,186.555C251.063,185.656 249.859,184.809 248.617,184.035Z" style="fill:rgb(225,5,2);fill-rule:nonzero;"/>
                    </g>
                    <g transform="matrix(2.12276,0,0,2.12276,-332.106,6.61132)">
                        <path d="M362.844,146.848C362.844,147.461 362.699,148.09 362.43,148.738C362.07,149.582 361.621,150.016 361.043,150.016C360.16,150.016 359.531,149.402 359.152,148.18C358.723,149.727 357.949,150.52 356.832,150.52C356.398,150.52 356.039,150.305 355.715,149.871C355.375,149.387 355.195,148.719 355.195,147.91L355.195,145.984C355.195,145.84 355.086,145.73 354.871,145.66C354.652,145.605 354.563,145.445 354.563,145.172C354.563,144.758 354.742,144.344 355.105,143.934C355.43,143.57 355.68,143.391 355.844,143.391C356.059,143.391 356.184,143.805 356.184,144.652C356.184,145.102 356.148,145.461 356.074,145.75C356.004,146.055 355.969,146.309 355.969,146.523C355.969,146.992 356.059,147.422 356.238,147.836C356.453,148.324 356.742,148.574 357.066,148.574C357.48,148.574 357.875,148.379 358.254,148C358.613,147.605 358.813,147.172 358.813,146.648C358.813,146.344 358.723,145.84 358.543,145.121C358.363,144.398 358.289,143.969 358.273,143.789C358.289,143.625 358.363,143.391 358.523,143.051C358.668,142.707 358.793,142.547 358.867,142.547C359.012,142.547 359.191,143.031 359.426,143.984C359.641,144.941 359.766,145.641 359.766,146.09C359.766,147.406 360.27,148.07 361.277,148.07C361.711,148.07 361.996,147.836 362.105,147.406C361.223,145.875 360.793,144.707 360.793,143.895C360.793,143.426 360.898,143.016 361.133,142.652C361.297,142.402 361.402,142.258 361.477,142.258C361.531,142.258 361.586,142.402 361.621,142.727C361.656,143.156 361.727,143.52 361.816,143.789C361.836,143.824 362.051,144.363 362.465,145.406C362.719,146.039 362.844,146.523 362.844,146.848Z" style="fill:rgb(225,5,2);fill-rule:nonzero;"/>
                    </g>
                    <g transform="matrix(2.12276,0,0,2.12276,-332.106,6.61132)">
                        <path d="M350.227,141.141C354.563,139.559 359.172,137.883 364.051,136.102C364.301,136.012 364.445,135.977 364.48,136.012C364.555,136.047 364.535,136.191 364.445,136.406C364.156,137.09 363.941,137.504 363.762,137.648C359.676,139.125 354.887,140.996 349.434,143.266C349.598,142.617 349.867,141.914 350.227,141.141Z" style="fill:rgb(225,5,2);fill-rule:nonzero;"/>
                    </g>
                    <g transform="matrix(2.12276,0,0,2.12276,-332.106,6.61132)">
                        <path d="M346.645,149.242C346.246,148.359 345.563,147.711 344.594,147.297C344.594,148.16 344.504,148.863 344.305,149.387C344.43,149.422 345.188,149.531 346.555,149.711C346.645,149.727 346.699,149.727 346.715,149.691C346.789,149.637 346.77,149.477 346.645,149.242ZM343.586,149.242C343.711,148.793 343.711,148.305 343.586,147.801C343.441,147.227 343.188,146.957 342.828,146.957C342.629,146.957 342.344,147.137 341.98,147.496C341.621,147.855 341.441,148.125 341.441,148.305C341.441,148.754 342.16,149.062 343.586,149.242ZM341.297,146.738C341.012,145.77 341.082,145.082 341.477,144.687C341.785,144.363 342.16,144.219 342.574,144.219C342.988,144.219 343.457,144.344 343.98,144.633C345.836,145.641 347.059,146.883 347.672,148.34C347.707,148.434 347.742,148.559 347.742,148.703C347.742,149.207 347.578,149.781 347.258,150.449C346.949,151.094 346.645,151.437 346.355,151.418C346.246,151.437 345.383,151.348 343.766,151.168C342.953,152.301 341.945,153.309 340.758,154.191C339.336,155.234 338.023,156.027 336.836,156.566C336.582,156.695 335.215,157.215 332.711,158.133C332.316,158.277 332.063,158.352 331.922,158.352C331.848,158.352 331.828,158.332 331.828,158.297C331.828,158.223 332.047,158.027 332.496,157.738C334.332,156.656 336.148,155.578 337.984,154.496C340.074,153.273 341.695,152.105 342.828,151.004C341.387,150.684 340.668,150.016 340.668,149.043C340.668,148.234 340.867,147.461 341.297,146.738Z" style="fill:rgb(225,5,2);fill-rule:nonzero;"/>
                    </g>
                    <g transform="matrix(2.12276,0,0,2.12276,-332.106,6.61132)">
                        <path d="M328.266,133.094C328.105,133.762 327.926,134.195 327.707,134.391C326.844,134.934 324.973,136.172 322.074,138.152C321.949,138.227 321.805,138.332 321.641,138.461C321.605,138.441 321.59,138.387 321.57,138.281L321.73,137.273C321.77,137.02 322.254,136.551 323.152,135.852C322.039,135.437 321.48,134.934 321.48,134.32C321.48,133.637 321.77,132.934 322.363,132.215C323.516,130.809 324.484,130.125 325.242,130.125C325.926,130.125 326.27,130.504 326.27,131.297C326.27,131.727 326.09,132.25 325.711,132.863C325.637,133.004 325.547,132.988 325.457,132.789C325.242,132.34 324.953,132.125 324.613,132.125C324.324,132.125 324,132.25 323.621,132.52C323.227,132.789 323.047,133.023 323.047,133.223C323.047,133.457 323.281,133.691 323.746,133.941C324.215,134.195 324.594,134.32 324.863,134.32C325.133,134.32 325.586,134.121 326.23,133.742C326.684,133.437 327.133,133.148 327.582,132.863C327.961,132.664 328.195,132.574 328.266,132.609C328.34,132.645 328.34,132.809 328.266,133.094Z" style="fill:rgb(225,5,2);fill-rule:nonzero;"/>
                    </g>
                    <g transform="matrix(2.12276,0,0,2.12276,-332.106,6.61132)">
                        <path d="M318.707,129.242C321.75,128.164 325.063,126.992 328.609,125.734C328.859,125.645 329.004,125.609 329.059,125.645C329.129,125.68 329.113,125.824 329.004,126.039C328.734,126.723 328.5,127.137 328.34,127.281C325.332,128.324 321.859,129.695 317.914,131.402C318.078,130.738 318.348,130.02 318.707,129.242Z" style="fill:rgb(225,5,2);fill-rule:nonzero;"/>
                    </g>
                    <g transform="matrix(2.12276,0,0,2.12276,-332.106,6.61132)">
                        <path d="M315.18,145.266C315.18,145.66 314.656,146.594 313.633,148.02C312.461,149.637 311.363,150.809 310.32,151.562C309.652,152.031 307.422,152.77 303.641,153.758C302.977,153.941 302.633,153.992 302.633,153.957C302.688,153.887 302.922,153.687 303.336,153.363C303.82,152.984 305.172,152.23 307.367,151.059C309.473,149.945 310.715,149.223 311.074,148.918C311.129,148.844 311.164,148.793 311.164,148.719C311.164,148.215 309.293,147.98 305.551,147.98C305.531,147.98 304.813,148 303.391,148.07C302.707,148.109 302.363,148.055 302.363,147.926C302.363,147.836 302.438,147.641 302.617,147.332L303.949,145.102C304.344,144.437 305.047,144.023 306.07,143.859C306.449,143.789 307.332,143.77 308.684,143.77C313.004,143.77 315.18,144.254 315.18,145.266Z" style="fill:rgb(225,5,2);fill-rule:nonzero;"/>
                    </g>
                    <g transform="matrix(2.12276,0,0,2.12276,-332.106,6.61132)">
                        <path d="M239.453,158.891C242.496,157.809 245.809,156.641 249.355,155.379C249.605,155.289 249.75,155.254 249.805,155.289C249.875,155.324 249.859,155.469 249.75,155.687C249.48,156.371 249.246,156.785 249.086,156.926C246.078,157.973 242.605,159.34 238.66,161.051C238.824,160.383 239.094,159.664 239.453,158.891Z" style="fill:rgb(225,5,2);fill-rule:nonzero;"/>
                    </g>
                    <g transform="matrix(2.12276,0,0,2.12276,-332.106,6.61132)">
                        <path d="M229.824,157.648C229.824,158.043 229.301,158.98 228.277,160.402C227.105,162.023 226.008,163.191 224.965,163.949C224.297,164.414 222.066,165.152 218.285,166.145C217.621,166.324 217.277,166.379 217.277,166.34C217.332,166.27 217.566,166.07 217.98,165.746C218.465,165.371 219.816,164.613 222.012,163.445C224.117,162.328 225.359,161.609 225.719,161.301C225.773,161.23 225.809,161.176 225.809,161.105C225.809,160.602 223.938,160.367 220.195,160.367C220.176,160.367 219.457,160.383 218.035,160.457C217.352,160.492 217.008,160.437 217.008,160.312C217.008,160.223 217.078,160.023 217.262,159.719L218.594,157.484C218.988,156.82 219.691,156.406 220.715,156.242C221.094,156.172 221.977,156.152 223.324,156.152C227.645,156.152 229.824,156.641 229.824,157.648Z" style="fill:rgb(225,5,2);fill-rule:nonzero;"/>
                    </g>
                    <g transform="matrix(2.12276,0,0,2.12276,-332.106,6.61132)">
                        <path d="M221.867,140.098C222.75,140.098 223.523,140.621 224.227,141.645C224.93,142.691 225.414,144.039 225.684,145.715C225.719,145.895 225.738,146 225.738,146.02C225.773,146.074 225.793,146.074 225.809,146.02C225.828,146 225.863,145.895 225.918,145.715C226.063,144.723 226.402,143.23 226.961,141.25C227.555,139.828 228.203,139.125 228.906,139.125C229.266,139.125 229.625,139.359 229.984,139.844C230.293,140.258 230.453,140.602 230.453,140.871C230.453,141.07 230.398,141.34 230.273,141.664C230.148,142.094 229.984,142.328 229.789,142.328C229.715,142.328 229.535,142.148 229.285,141.824C229.016,141.484 228.742,141.32 228.457,141.32C227.824,141.32 227.25,142.797 226.727,145.75C226.492,147.027 226.223,147.926 225.953,148.469C225.738,148.828 225.574,149.008 225.434,149.008C225.305,149.008 225.254,148.828 225.254,148.504C225.254,148 224.945,146.992 224.352,145.496C223.758,144.004 223.344,143.266 223.094,143.266C222.91,143.266 222.805,143.32 222.77,143.426C222.715,143.535 222.57,143.59 222.336,143.59C222.086,143.59 221.723,143.391 221.293,142.996C220.879,142.602 220.66,142.293 220.66,142.059C220.66,141.953 220.844,141.59 221.203,140.996C221.563,140.387 221.777,140.098 221.867,140.098Z" style="fill:rgb(225,5,2);fill-rule:nonzero;"/>
                    </g>
                    <g transform="matrix(2.12276,0,0,2.12276,-332.106,6.61132)">
                        <path d="M245.449,145.082C245.504,144.992 245.539,144.922 245.594,144.887C245.629,144.852 245.664,144.852 245.664,144.902C245.684,144.941 245.684,145.031 245.664,145.137C245.23,147.441 244.547,148.594 243.594,148.594C242.586,148.594 242.082,147.746 242.082,146.055C242.082,143.984 242.676,141.789 243.883,139.523C244.172,138.965 244.352,138.656 244.422,138.656C244.441,138.656 244.441,138.656 244.441,138.676C244.441,138.785 244.352,139.109 244.188,139.629C243.395,142.004 243.02,143.68 243.02,144.633C243.02,145.93 243.359,146.578 244.063,146.578C244.477,146.578 244.926,146.074 245.449,145.082Z" style="fill:rgb(225,5,2);fill-rule:nonzero;"/>
                    </g>
                </g>
            </g>
        </g>
    </g>
</svg>
