<svg width="19" height="19" viewBox="0 0 19 19" fill="none" xmlns="http://www.w3.org/2000/svg">
<path d="M12.6511 2.43453C12.6559 2.63059 12.6215 2.82563 12.5498 3.00818C12.4782 3.19073 12.3707 3.3571 12.2338 3.49751C12.0969 3.63792 11.9333 3.74953 11.7526 3.82577C11.5719 3.90201 11.3778 3.94135 11.1817 3.94146C10.9856 3.94158 10.7914 3.90247 10.6106 3.82643C10.4299 3.7504 10.2661 3.63898 10.129 3.49873C9.99195 3.35848 9.88431 3.19223 9.81243 3.00976C9.74055 2.82729 9.7059 2.63229 9.7105 2.43623C9.7195 2.0524 9.87825 1.6873 10.1528 1.41894C10.4274 1.15057 10.796 1.00022 11.18 1C11.5639 0.999778 11.9327 1.1497 12.2076 1.41775C12.4825 1.6858 12.6417 2.05071 12.6511 2.43453ZM8.88672 3.98943C8.89149 4.18549 8.857 4.38052 8.78528 4.56305C8.71356 4.74558 8.60606 4.91192 8.46911 5.05229C8.33215 5.19266 8.1685 5.30423 7.98779 5.38041C7.80708 5.4566 7.61296 5.49588 7.41684 5.49594C7.22073 5.496 7.02658 5.45683 6.84583 5.38074C6.66508 5.30466 6.50136 5.19319 6.36433 5.0529C6.22729 4.91261 6.11969 4.74633 6.04787 4.56384C5.97605 4.38135 5.94144 4.18634 5.9461 3.99028C5.95522 3.60645 6.11407 3.2414 6.38873 2.97312C6.66338 2.70483 7.03205 2.55459 7.41599 2.55448C7.79993 2.55437 8.1687 2.7044 8.4435 2.97252C8.71831 3.24065 8.87738 3.6056 8.88672 3.98943ZM7.32927 7.77422C7.33604 7.97146 7.30304 8.16803 7.23224 8.35225C7.16145 8.53646 7.0543 8.70454 6.91719 8.84648C6.78008 8.98841 6.6158 9.1013 6.43415 9.17843C6.25249 9.25555 6.05718 9.29532 5.85983 9.29538C5.66248 9.29544 5.46714 9.25577 5.28544 9.17876C5.10374 9.10174 4.9394 8.98895 4.80221 8.84709C4.66501 8.70523 4.55777 8.53721 4.48687 8.35304C4.41597 8.16887 4.38286 7.97231 4.38951 7.77507C4.40236 7.39389 4.5628 7.0326 4.83696 6.76745C5.11113 6.5023 5.47757 6.35403 5.85898 6.35392C6.24038 6.35381 6.60692 6.50187 6.88123 6.76686C7.15555 7.03185 7.31619 7.39304 7.32927 7.77422ZM8.87056 11.5454C8.87739 11.7426 8.84444 11.9392 8.7737 12.1235C8.70296 12.3077 8.59586 12.4758 8.45879 12.6178C8.32172 12.7598 8.15748 12.8727 7.97585 12.9499C7.79421 13.027 7.59891 13.0669 7.40156 13.067C7.20421 13.0671 7.00886 13.0275 6.82714 12.9505C6.64542 12.8736 6.48105 12.7608 6.34381 12.619C6.20657 12.4772 6.09928 12.3092 6.02833 12.1251C5.95737 11.9409 5.92421 11.7444 5.9308 11.5471C5.93981 11.1633 6.09855 10.7982 6.37313 10.5298C6.6477 10.2615 7.01634 10.1111 7.40028 10.1109C7.78422 10.1107 8.15302 10.2606 8.42791 10.5286C8.70279 10.7967 8.86111 11.1616 8.87056 11.5454ZM12.6537 13.1165C12.6604 13.3137 12.6274 13.5103 12.5566 13.6945C12.4858 13.8787 12.3787 14.0468 12.2416 14.1887C12.1045 14.3307 11.9402 14.4435 11.7585 14.5207C11.5769 14.5978 11.3816 14.6376 11.1842 14.6376C10.9869 14.6377 10.7915 14.598 10.6098 14.521C10.4281 14.444 10.2638 14.3312 10.1266 14.1893C9.9894 14.0475 9.88216 13.8795 9.81126 13.6953C9.74035 13.5111 9.70724 13.3146 9.7139 13.1173C9.72301 12.7335 9.88187 12.3684 10.1565 12.1002C10.4312 11.8319 10.7998 11.6816 11.1838 11.6815C11.5677 11.6814 11.9365 11.8314 12.2113 12.0996C12.4861 12.3677 12.6452 12.7326 12.6545 13.1165H12.6537ZM16.4376 11.5454C16.4424 11.7415 16.408 11.9365 16.3363 12.1191C16.2647 12.3016 16.1572 12.468 16.0203 12.6084C15.8834 12.7488 15.7198 12.8604 15.5391 12.9367C15.3584 13.0129 15.1643 13.0522 14.9682 13.0523C14.7721 13.0525 14.5779 13.0134 14.3971 12.9373C14.2163 12.8613 14.0526 12.7499 13.9155 12.6096C13.7784 12.4694 13.6708 12.3031 13.5989 12.1206C13.527 11.9382 13.4924 11.7432 13.497 11.5471C13.4968 11.1571 13.6515 10.7829 13.9272 10.5069C14.2028 10.2309 14.5768 10.0758 14.9669 10.0755C15.3569 10.0753 15.7311 10.23 16.0071 10.5057C16.2831 10.7814 16.4382 11.1554 16.4385 11.5454H16.4376ZM17.9993 7.77422C18.006 7.97146 17.973 8.16803 17.9021 8.35222C17.8313 8.53641 17.7241 8.70446 17.5869 8.84636C17.4498 8.98826 17.2854 9.1011 17.1038 9.17817C16.9221 9.25524 16.7268 9.29496 16.5294 9.29496C16.3321 9.29496 16.1367 9.25524 15.9551 9.17817C15.7734 9.1011 15.6091 8.98826 15.4719 8.84636C15.3348 8.70446 15.2276 8.53641 15.1567 8.35222C15.0859 8.16803 15.0528 7.97146 15.0595 7.77422C15.0725 7.39304 15.233 7.0318 15.5073 6.76673C15.7815 6.50166 16.148 6.35349 16.5294 6.35349C16.9108 6.35349 17.2773 6.50166 17.5516 6.76673C17.8258 7.0318 17.9863 7.39304 17.9993 7.77422ZM16.4376 4.00133C16.4424 4.19739 16.408 4.39243 16.3363 4.57498C16.2647 4.75753 16.1572 4.9239 16.0203 5.06431C15.8834 5.20472 15.7198 5.31633 15.5391 5.39257C15.3584 5.46881 15.1643 5.50815 14.9682 5.50826C14.7721 5.50837 14.5779 5.46926 14.3971 5.39323C14.2163 5.3172 14.0526 5.20578 13.9155 5.06553C13.7784 4.92528 13.6708 4.75903 13.5989 4.57656C13.527 4.39409 13.4924 4.19909 13.497 4.00303C13.4968 3.61297 13.6515 3.23879 13.9272 2.96282C14.2028 2.68684 14.5768 2.53167 14.9669 2.53145C15.3569 2.53122 15.7311 2.68596 16.0071 2.96162C16.2831 3.23727 16.4382 3.61127 16.4385 4.00133H16.4376Z" stroke="url(#paint0_linear_156_417)"/>
<path d="M5.8941 11.8871L1.75224 13.9734C1.1342 14.3092 0.766088 14.6977 1.1682 15.4169C1.33823 15.7315 1.69699 16.2602 2.21387 16.7797M2.21387 16.7797C2.64881 17.227 3.15429 17.5997 3.7101 17.8831C4.07821 18.0149 4.52538 18.122 4.99295 17.1954L7.07408 13.0663M2.21387 16.7797L3.63784 15.3268" stroke="url(#paint1_linear_156_417)" stroke-linecap="round" stroke-linejoin="round"/>
<defs>
<linearGradient id="paint0_linear_156_417" x1="11.1944" y1="1" x2="11.1944" y2="14.6376" gradientUnits="userSpaceOnUse">
<stop offset="0.475962" stop-color="#4154D0"/>
<stop offset="1" stop-color="#212B6A"/>
</linearGradient>
<linearGradient id="paint1_linear_156_417" x1="4.03704" y1="11.8871" x2="4.03704" y2="17.9693" gradientUnits="userSpaceOnUse">
<stop offset="0.475962" stop-color="#4154D0"/>
<stop offset="1" stop-color="#212B6A"/>
</linearGradient>
</defs>
</svg>
